<?xml version="1.0" encoding="utf-8"?>
<!-- Generator: Adobe Illustrator 16.0.2, SVG Export Plug-In . SVG Version: 6.00 Build 0)  -->
<!DOCTYPE svg PUBLIC "-//W3C//DTD SVG 1.1//EN" "http://www.w3.org/Graphics/SVG/1.1/DTD/svg11.dtd">
<svg version="1.1" xmlns="http://www.w3.org/2000/svg" xmlns:xlink="http://www.w3.org/1999/xlink" x="0px" y="0px"
	 width="495.61px" height="108.896px" viewBox="0 0 495.61 108.896" enable-background="new 0 0 495.61 108.896"
	 xml:space="preserve">
<g id="Original">
	<path fill="#FFFFFF" stroke="#000000" stroke-miterlimit="10" d="M-294.564,172.412c0,0,5,0.334,7,3.668c2,3.332,0.75,6.167,7,10
		s153.334,0.666,153.334,0.666s6-0.666,8-2.666s13.333-13.001,13.666-14.668c0.334-1.666,6.334-16.999,9.667-19.333
		c3.333-2.333,11.333-7.666,15-6c3.667,1.667,0-65,0-65H-327.23l-0.667,93.333H-294.564z"/>
	<path fill="#FFFFFF" stroke="#000000" stroke-miterlimit="10" d="M-217.064,92.743l59,1.666c0,0,19.666-1,24,14
		c4.332,15,3.666,32.668,0,42.668c-3.668,10-19.667,16.666-30,15.332c-10.334-1.332-61.668,0.17-61.668,0.17
		s-16.666,0.831-22-15.502c-5.332-16.334-1.333-40.334,2-45C-242.398,101.409-234.07,92.263-217.064,92.743z"/>
	<path fill="#FFFFFF" stroke="#000000" stroke-miterlimit="10" d="M-139.881,219.403v93.445h-76.518l-102.022-49.011h-137.73
		l-21.133,35.955c0,0-6.56,15.115-21.862,21.987c-15.304,6.871-28.42-4.123-29.149-11.681c-0.729-7.558-8.016-20.613,16.032-57.716
		c24.048-37.104,58.299-32.98,58.299-32.98H-139.881z"/>
	<g>
		<g>
			<path fill="#FF0000" d="M-411.082,331.921c-2.864-0.26-5.293-2.023-6.487-4.498h6.487v-6.221h-6.796
				c1.041-2.853,3.657-4.945,6.796-5.229v-6.097c-7.441,0.381-13.358,6.535-13.358,14.07c0,7.537,5.917,13.69,13.358,14.071V331.921
				z"/>
			<path fill="#FF0000" d="M-408.337,310.003v6.188c3.45,0.894,5.998,4.026,5.998,7.755c0,3.73-2.548,6.863-5.998,7.756v6.189
				c6.828-0.978,12.077-6.848,12.077-13.945S-401.51,310.98-408.337,310.003z"/>
		</g>
		<g>
			<path fill="#FF0000" d="M-382.354,310.003v6.188c-3.45,0.894-5.998,4.026-5.998,7.755c0,3.73,2.548,6.863,5.998,7.756v6.189
				c-6.828-0.978-12.077-6.848-12.077-13.945S-389.182,310.98-382.354,310.003z"/>
		</g>
	</g>
</g>
<g id="Left">
	<path fill="#FFFFFF" stroke="#000000" stroke-miterlimit="10" d="M394.179-0.017v93.445h-76.518L215.64,44.417H77.909
		L56.776,80.373c0,0-6.56,15.115-21.862,21.987c-15.304,6.871-28.42-4.123-29.149-11.681c-0.729-7.558-8.016-20.613,16.032-57.716
		C45.845-4.14,80.096-0.017,80.096-0.017H394.179z"/>
	<g>
		<g>
			<path fill="#FF0000" d="M357.367,31.629c-2.863-0.26-5.294-2.022-6.487-4.497h6.487v-6.221h-6.796
				c1.04-2.853,3.657-4.945,6.796-5.229V9.585c-7.441,0.38-13.358,6.534-13.358,14.07s5.917,13.69,13.358,14.071V31.629z"/>
			<path fill="#FF0000" d="M360.111,9.712V15.9c3.45,0.893,5.997,4.026,5.997,7.755c0,3.729-2.547,6.863-5.997,7.755V37.6
				c6.828-0.977,12.077-6.847,12.077-13.944S366.939,10.689,360.111,9.712z"/>
		</g>
		<g>
			<path fill="#FF0000" d="M386.095,9.712V15.9c-3.45,0.893-5.997,4.026-5.997,7.755c0,3.729,2.547,6.863,5.997,7.755V37.6
				c-6.828-0.977-12.077-6.847-12.077-13.944S379.267,10.689,386.095,9.712z"/>
		</g>
	</g>
	<g>
		<path fill="#FF0000" d="M323.774,51.511l-0.672,2.423h-2.213l2.885-9.441h2.803l2.927,9.441h-2.297l-0.729-2.423H323.774z
			 M326.171,49.915l-0.589-2.003c-0.168-0.56-0.336-1.261-0.476-1.821h-0.029c-0.14,0.56-0.279,1.275-0.434,1.821l-0.561,2.003
			H326.171z"/>
		<path fill="#FF0000" d="M335.635,53.767c-0.378,0.168-1.093,0.308-1.905,0.308c-2.213,0-3.627-1.345-3.627-3.501
			c0-2.003,1.372-3.642,3.922-3.642c0.561,0,1.176,0.098,1.625,0.266l-0.337,1.583c-0.252-0.112-0.63-0.21-1.19-0.21
			c-1.121,0-1.85,0.798-1.835,1.919c0,1.261,0.841,1.919,1.877,1.919c0.505,0,0.896-0.084,1.219-0.21L335.635,53.767z"/>
		<path fill="#FF0000" d="M343.266,51.735c0,0.896,0.028,1.625,0.056,2.199h-1.849l-0.099-0.967h-0.041
			c-0.267,0.421-0.911,1.121-2.144,1.121c-1.387,0-2.409-0.869-2.409-2.984v-4.02h2.143v3.684c0,0.994,0.322,1.597,1.064,1.597
			c0.589,0,0.925-0.406,1.064-0.742c0.057-0.126,0.07-0.294,0.07-0.462v-4.076h2.144V51.735z"/>
		<path fill="#FF0000" d="M347.169,45.18c0,0.588-0.447,1.065-1.148,1.065c-0.672,0-1.12-0.477-1.106-1.065
			c-0.014-0.616,0.435-1.079,1.12-1.079C346.722,44.101,347.155,44.563,347.169,45.18z M344.97,53.935v-6.85h2.129v6.85H344.97z"/>
		<path fill="#FF0000" d="M351.188,45.124v1.961h1.526v1.569h-1.526v2.479c0,0.827,0.196,1.205,0.841,1.205
			c0.266,0,0.476-0.028,0.63-0.056l0.015,1.611c-0.281,0.112-0.785,0.182-1.387,0.182c-0.688,0-1.262-0.237-1.598-0.588
			c-0.393-0.406-0.588-1.064-0.588-2.031v-2.801h-0.91v-1.569h0.91V45.6L351.188,45.124z"/>
		<path fill="#FF0000" d="M355.61,47.085l1.022,3.362c0.112,0.406,0.253,0.911,0.337,1.274h0.041
			c0.099-0.364,0.211-0.882,0.309-1.274l0.84-3.362h2.284l-1.597,4.51c-0.98,2.717-1.639,3.81-2.41,4.497
			c-0.742,0.645-1.526,0.868-2.059,0.938l-0.448-1.807c0.267-0.042,0.603-0.168,0.925-0.364c0.322-0.168,0.672-0.505,0.882-0.854
			c0.07-0.099,0.112-0.21,0.112-0.309c0-0.07-0.014-0.182-0.098-0.35l-2.508-6.262H355.61z"/>
		<path fill="#FF0000" d="M368.058,53.935l-0.126-0.687h-0.042c-0.448,0.547-1.148,0.841-1.961,0.841
			c-1.387,0-2.213-1.009-2.213-2.102c0-1.779,1.596-2.633,4.02-2.619V49.27c0-0.364-0.195-0.882-1.246-0.882
			c-0.701,0-1.443,0.238-1.892,0.518l-0.392-1.373c0.476-0.266,1.414-0.603,2.661-0.603c2.283,0,3.011,1.345,3.011,2.956v2.381
			c0,0.658,0.029,1.289,0.099,1.667H368.058z M367.806,50.699c-1.121-0.014-1.989,0.252-1.989,1.079
			c0,0.546,0.364,0.813,0.841,0.813c0.531,0,0.967-0.35,1.106-0.784c0.028-0.112,0.042-0.238,0.042-0.364V50.699z"/>
		<path fill="#FF0000" d="M371.556,49.27c0-0.854-0.027-1.583-0.057-2.185h1.85l0.098,0.938h0.043
			c0.279-0.434,0.98-1.093,2.115-1.093c1.4,0,2.451,0.925,2.451,2.942v4.062h-2.13v-3.796c0-0.883-0.308-1.485-1.078-1.485
			c-0.589,0-0.938,0.406-1.079,0.798c-0.056,0.126-0.084,0.336-0.084,0.532v3.95h-2.129V49.27z"/>
		<path fill="#FF0000" d="M386.399,43.989v7.9c0,0.77,0.027,1.583,0.057,2.045h-1.892l-0.099-1.009h-0.027
			c-0.435,0.771-1.261,1.163-2.144,1.163c-1.624,0-2.927-1.387-2.927-3.516c-0.015-2.311,1.428-3.642,3.066-3.642
			c0.841,0,1.5,0.294,1.808,0.771h0.028v-3.712H386.399z M384.271,49.984c0-0.112-0.014-0.266-0.028-0.378
			c-0.126-0.575-0.589-1.051-1.247-1.051c-0.967,0-1.471,0.869-1.471,1.947c0,1.163,0.574,1.891,1.457,1.891
			c0.616,0,1.106-0.42,1.232-1.022c0.043-0.154,0.057-0.308,0.057-0.49V49.984z"/>
		<path fill="#FF0000" d="M311.851,70.469c-0.393,0.196-1.275,0.406-2.424,0.406c-3.264,0-4.945-2.03-4.945-4.72
			c0-3.222,2.298-5.015,5.155-5.015c1.106,0,1.947,0.224,2.325,0.42l-0.434,1.694c-0.435-0.182-1.037-0.35-1.793-0.35
			c-1.695,0-3.012,1.022-3.012,3.123c0,1.892,1.12,3.082,3.025,3.082c0.645,0,1.358-0.14,1.779-0.308L311.851,70.469z"/>
		<path fill="#FF0000" d="M319.675,67.233c0,2.508-1.778,3.656-3.613,3.656c-2.004,0-3.544-1.317-3.544-3.53
			s1.456-3.628,3.655-3.628C318.274,63.731,319.675,65.175,319.675,67.233z M314.717,67.304c0,1.177,0.49,2.059,1.4,2.059
			c0.827,0,1.358-0.826,1.358-2.059c0-1.022-0.392-2.06-1.358-2.06C315.095,65.244,314.717,66.295,314.717,67.304z"/>
		<path fill="#FF0000" d="M320.987,66.071c0-0.854-0.027-1.583-0.056-2.186h1.849l0.099,0.938h0.042
			c0.28-0.435,0.98-1.093,2.115-1.093c1.4,0,2.451,0.925,2.451,2.941v4.063h-2.129v-3.796c0-0.883-0.309-1.485-1.079-1.485
			c-0.588,0-0.938,0.406-1.078,0.799c-0.056,0.126-0.085,0.336-0.085,0.532v3.95h-2.129V66.071z"/>
		<path fill="#FF0000" d="M331.489,61.925v1.961h1.527v1.568h-1.527v2.479c0,0.827,0.195,1.205,0.84,1.205
			c0.267,0,0.477-0.028,0.631-0.057l0.014,1.611c-0.279,0.112-0.784,0.182-1.387,0.182c-0.686,0-1.26-0.237-1.597-0.588
			c-0.392-0.406-0.589-1.064-0.589-2.031v-2.802h-0.91v-1.568h0.91V62.4L331.489,61.925z"/>
		<path fill="#FF0000" d="M334.245,66.141c0-1.009-0.027-1.667-0.056-2.255h1.835l0.07,1.261h0.056
			c0.351-0.995,1.19-1.415,1.849-1.415c0.197,0,0.295,0,0.449,0.028v2.003c-0.154-0.028-0.336-0.056-0.574-0.056
			c-0.785,0-1.317,0.42-1.457,1.078c-0.028,0.14-0.043,0.309-0.043,0.477v3.474h-2.129V66.141z"/>
		<path fill="#FF0000" d="M343.306,70.735l-0.126-0.687h-0.042c-0.448,0.547-1.148,0.841-1.961,0.841
			c-1.387,0-2.213-1.009-2.213-2.102c0-1.778,1.596-2.633,4.02-2.619v-0.098c0-0.364-0.195-0.883-1.246-0.883
			c-0.701,0-1.443,0.238-1.892,0.519l-0.392-1.373c0.476-0.267,1.414-0.603,2.661-0.603c2.283,0,3.011,1.345,3.011,2.956v2.381
			c0,0.658,0.029,1.289,0.099,1.667H343.306z M343.054,67.5c-1.121-0.015-1.989,0.252-1.989,1.078c0,0.546,0.364,0.813,0.841,0.813
			c0.531,0,0.967-0.351,1.106-0.784c0.028-0.112,0.042-0.238,0.042-0.364V67.5z"/>
		<path fill="#FF0000" d="M346.79,68.872c0.392,0.238,1.204,0.519,1.834,0.519c0.645,0,0.911-0.224,0.911-0.574
			s-0.21-0.519-1.009-0.784c-1.414-0.477-1.961-1.247-1.947-2.06c0-1.274,1.094-2.241,2.788-2.241c0.798,0,1.513,0.183,1.933,0.393
			l-0.378,1.471c-0.308-0.168-0.896-0.393-1.485-0.393c-0.518,0-0.813,0.21-0.813,0.561c0,0.322,0.267,0.49,1.107,0.784
			c1.303,0.448,1.849,1.106,1.863,2.115c0,1.274-1.009,2.213-2.971,2.213c-0.896,0-1.694-0.195-2.213-0.476L346.79,68.872z"/>
		<path fill="#FF0000" d="M355.261,61.925v1.961h1.527v1.568h-1.527v2.479c0,0.827,0.195,1.205,0.84,1.205
			c0.267,0,0.477-0.028,0.631-0.057l0.014,1.611c-0.279,0.112-0.784,0.182-1.387,0.182c-0.686,0-1.26-0.237-1.597-0.588
			c-0.392-0.406-0.589-1.064-0.589-2.031v-2.802h-0.91v-1.568h0.91V62.4L355.261,61.925z"/>
		<path fill="#FF0000" d="M360.915,61.294h2.144v7.648h3.754v1.793h-5.897V61.294z"/>
		<path fill="#FF0000" d="M374.64,67.233c0,2.508-1.779,3.656-3.614,3.656c-2.003,0-3.544-1.317-3.544-3.53s1.457-3.628,3.656-3.628
			C373.238,63.731,374.64,65.175,374.64,67.233z M369.681,67.304c0,1.177,0.49,2.059,1.4,2.059c0.826,0,1.359-0.826,1.359-2.059
			c0-1.022-0.393-2.06-1.359-2.06C370.059,65.244,369.681,66.295,369.681,67.304z"/>
		<path fill="#FF0000" d="M375.938,68.872c0.393,0.238,1.204,0.519,1.835,0.519c0.645,0,0.91-0.224,0.91-0.574
			s-0.209-0.519-1.008-0.784c-1.415-0.477-1.961-1.247-1.947-2.06c0-1.274,1.093-2.241,2.787-2.241c0.799,0,1.514,0.183,1.934,0.393
			l-0.379,1.471c-0.308-0.168-0.896-0.393-1.484-0.393c-0.518,0-0.813,0.21-0.813,0.561c0,0.322,0.266,0.49,1.107,0.784
			c1.303,0.448,1.848,1.106,1.862,2.115c0,1.274-1.009,2.213-2.97,2.213c-0.896,0-1.695-0.195-2.213-0.476L375.938,68.872z"/>
		<path fill="#FF0000" d="M382.013,68.872c0.393,0.238,1.205,0.519,1.836,0.519c0.645,0,0.91-0.224,0.91-0.574
			s-0.21-0.519-1.009-0.784c-1.415-0.477-1.961-1.247-1.946-2.06c0-1.274,1.092-2.241,2.787-2.241c0.799,0,1.513,0.183,1.934,0.393
			l-0.379,1.471c-0.309-0.168-0.896-0.393-1.484-0.393c-0.519,0-0.813,0.21-0.813,0.561c0,0.322,0.266,0.49,1.106,0.784
			c1.303,0.448,1.849,1.106,1.862,2.115c0,1.274-1.008,2.213-2.969,2.213c-0.896,0-1.695-0.195-2.213-0.476L382.013,68.872z"/>
		<path fill="#FF0000" d="M338.993,77.855c-0.799,1.289-1.415,3.166-1.415,5.674c0,2.465,0.63,4.328,1.415,5.631h-1.484
			c-0.757-1.079-1.598-2.941-1.598-5.646c0.014-2.717,0.841-4.566,1.598-5.659H338.993z"/>
		<path fill="#FF0000" d="M340.392,78.094h2.143v7.648h3.754v1.793h-5.896V78.094z"/>
		<path fill="#FF0000" d="M348.987,84.79c0.07,0.882,0.939,1.303,1.934,1.303c0.729,0,1.316-0.099,1.891-0.28l0.281,1.442
			c-0.701,0.28-1.556,0.42-2.48,0.42c-2.324,0-3.655-1.345-3.655-3.487c0-1.737,1.079-3.656,3.46-3.656
			c2.213,0,3.053,1.723,3.053,3.418c0,0.364-0.041,0.687-0.069,0.841H348.987z M351.495,83.333c0-0.519-0.225-1.387-1.205-1.387
			c-0.896,0-1.26,0.813-1.316,1.387H351.495z"/>
		<path fill="#FF0000" d="M356.24,80.686l0.925,3.18c0.168,0.574,0.293,1.12,0.392,1.667h0.042c0.112-0.561,0.225-1.079,0.379-1.667
			l0.882-3.18h2.241l-2.549,6.85h-2.129l-2.494-6.85H356.24z"/>
		<path fill="#FF0000" d="M363.506,84.79c0.07,0.882,0.938,1.303,1.933,1.303c0.729,0,1.317-0.099,1.892-0.28l0.28,1.442
			c-0.701,0.28-1.555,0.42-2.479,0.42c-2.325,0-3.655-1.345-3.655-3.487c0-1.737,1.078-3.656,3.459-3.656
			c2.213,0,3.054,1.723,3.054,3.418c0,0.364-0.042,0.687-0.069,0.841H363.506z M366.013,83.333c0-0.519-0.224-1.387-1.204-1.387
			c-0.896,0-1.261,0.813-1.316,1.387H366.013z"/>
		<path fill="#FF0000" d="M369.259,77.59h2.129v9.945h-2.129V77.59z"/>
		<path fill="#FF0000" d="M378.389,80.321h-0.028l-1.736,0.826l-0.351-1.597l2.409-1.12h1.766v9.104h-2.06V80.321z"/>
		<path fill="#FF0000" d="M383.343,89.16c0.771-1.289,1.415-3.18,1.415-5.659s-0.63-4.343-1.415-5.646h1.485
			c0.742,1.079,1.597,2.914,1.597,5.646c-0.014,2.731-0.854,4.566-1.597,5.659H383.343z"/>
	</g>
	<g>
		<path fill="#FF0000" d="M79.573,19.951l0.546,2.801c0.14,0.714,0.28,1.471,0.392,2.255h0.028c0.14-0.785,0.336-1.569,0.504-2.241
			l0.729-2.815h1.681l0.686,2.731c0.182,0.771,0.364,1.541,0.504,2.325h0.028c0.098-0.785,0.238-1.555,0.393-2.339l0.588-2.717
			h2.087l-2.101,6.85h-2.003l-0.644-2.409c-0.168-0.672-0.294-1.289-0.434-2.129h-0.028c-0.126,0.854-0.266,1.485-0.448,2.129
			l-0.687,2.409h-2.003l-1.989-6.85H79.573z"/>
		<path fill="#FF0000" d="M90.465,19.951l0.546,2.801c0.14,0.714,0.28,1.471,0.392,2.255h0.028c0.14-0.785,0.336-1.569,0.504-2.241
			l0.729-2.815h1.681l0.686,2.731c0.182,0.771,0.364,1.541,0.504,2.325h0.028c0.098-0.785,0.238-1.555,0.393-2.339l0.588-2.717
			h2.087l-2.101,6.85h-2.003l-0.645-2.409c-0.168-0.672-0.294-1.289-0.434-2.129H93.42c-0.126,0.854-0.266,1.485-0.448,2.129
			l-0.686,2.409h-2.003l-1.989-6.85H90.465z"/>
		<path fill="#FF0000" d="M101.356,19.951l0.546,2.801c0.14,0.714,0.28,1.471,0.392,2.255h0.028c0.14-0.785,0.336-1.569,0.504-2.241
			l0.729-2.815h1.681l0.686,2.731c0.182,0.771,0.364,1.541,0.504,2.325h0.028c0.098-0.785,0.238-1.555,0.393-2.339l0.588-2.717
			h2.087l-2.101,6.85h-2.003l-0.645-2.409c-0.168-0.672-0.294-1.289-0.434-2.129h-0.028c-0.126,0.854-0.266,1.485-0.448,2.129
			l-0.686,2.409h-2.003l-1.989-6.85H101.356z"/>
		<path fill="#FF0000" d="M109.686,25.666c0-0.756,0.519-1.303,1.261-1.303c0.743,0,1.247,0.533,1.247,1.303
			c0,0.743-0.504,1.289-1.26,1.289C110.204,26.955,109.686,26.409,109.686,25.666z"/>
		<path fill="#FF0000" d="M115.679,18.046c0,0.588-0.448,1.065-1.149,1.065c-0.672,0-1.12-0.477-1.106-1.065
			c-0.014-0.616,0.435-1.079,1.121-1.079C115.231,16.967,115.665,17.43,115.679,18.046z M113.48,26.801v-6.85h2.129v6.85H113.48z"/>
		<path fill="#FF0000" d="M117.316,22.136c0-0.854-0.028-1.583-0.056-2.185h1.849l0.098,0.938h0.042
			c0.28-0.434,0.98-1.093,2.115-1.093c1.4,0,2.451,0.925,2.451,2.942v4.062h-2.129v-3.796c0-0.883-0.308-1.485-1.079-1.485
			c-0.588,0-0.938,0.406-1.078,0.798c-0.056,0.126-0.084,0.336-0.084,0.532v3.95h-2.129V22.136z"/>
		<path fill="#FF0000" d="M130.661,26.633c-0.378,0.168-1.092,0.308-1.905,0.308c-2.213,0-3.628-1.345-3.628-3.502
			c0-2.003,1.373-3.642,3.922-3.642c0.561,0,1.177,0.098,1.625,0.266l-0.336,1.583c-0.252-0.112-0.63-0.21-1.19-0.21
			c-1.121,0-1.849,0.798-1.835,1.919c0,1.261,0.84,1.919,1.877,1.919c0.504,0,0.896-0.084,1.219-0.21L130.661,26.633z"/>
		<path fill="#FF0000" d="M131.834,16.855h2.129v9.945h-2.129V16.855z"/>
		<path fill="#FF0000" d="M142.142,24.602c0,0.896,0.028,1.625,0.056,2.199h-1.849l-0.098-0.966h-0.042
			c-0.266,0.42-0.911,1.121-2.143,1.121c-1.387,0-2.409-0.869-2.409-2.984v-4.02h2.143v3.684c0,0.994,0.322,1.597,1.064,1.597
			c0.588,0,0.924-0.406,1.064-0.742c0.056-0.126,0.07-0.294,0.07-0.462v-4.076h2.143V24.602z"/>
		<path fill="#FF0000" d="M143.832,24.938c0.393,0.238,1.205,0.518,1.835,0.518c0.645,0,0.911-0.224,0.911-0.574
			s-0.21-0.519-1.008-0.785c-1.415-0.476-1.961-1.247-1.947-2.059c0-1.274,1.093-2.241,2.788-2.241c0.798,0,1.513,0.182,1.933,0.392
			l-0.378,1.471c-0.308-0.168-0.896-0.393-1.485-0.393c-0.518,0-0.813,0.21-0.813,0.561c0,0.322,0.266,0.49,1.107,0.784
			c1.303,0.448,1.849,1.107,1.863,2.115c0,1.275-1.008,2.213-2.97,2.213c-0.896,0-1.695-0.196-2.213-0.477L143.832,24.938z"/>
		<path fill="#FF0000" d="M152.121,18.046c0,0.588-0.448,1.065-1.148,1.065c-0.673,0-1.121-0.477-1.107-1.065
			c-0.014-0.616,0.434-1.079,1.121-1.079S152.107,17.43,152.121,18.046z M149.922,26.801v-6.85h2.129v6.85H149.922z"/>
		<path fill="#FF0000" d="M155.341,19.951l0.924,3.18c0.168,0.574,0.294,1.121,0.392,1.667h0.042
			c0.112-0.561,0.224-1.079,0.378-1.667l0.882-3.18h2.241l-2.549,6.85h-2.129l-2.494-6.85H155.341z"/>
		<path fill="#FF0000" d="M162.606,24.055c0.07,0.883,0.938,1.303,1.933,1.303c0.729,0,1.317-0.098,1.891-0.28l0.28,1.443
			c-0.701,0.28-1.555,0.42-2.479,0.42c-2.325,0-3.656-1.345-3.656-3.488c0-1.737,1.079-3.656,3.459-3.656
			c2.213,0,3.054,1.723,3.054,3.418c0,0.364-0.042,0.687-0.07,0.84H162.606z M165.114,22.599c0-0.519-0.224-1.387-1.205-1.387
			c-0.896,0-1.261,0.813-1.316,1.387H165.114z"/>
		<path fill="#FF0000" d="M175,16.855v7.9c0,0.77,0.028,1.583,0.056,2.045h-1.891l-0.098-1.008h-0.028
			c-0.435,0.77-1.261,1.163-2.144,1.163c-1.625,0-2.927-1.387-2.927-3.516c-0.014-2.311,1.429-3.642,3.067-3.642
			c0.841,0,1.499,0.294,1.807,0.771h0.028v-3.712H175z M172.87,22.851c0-0.112-0.014-0.266-0.028-0.378
			c-0.126-0.575-0.588-1.051-1.247-1.051c-0.967,0-1.471,0.869-1.471,1.947c0,1.163,0.574,1.891,1.457,1.891
			c0.616,0,1.106-0.42,1.233-1.022c0.042-0.154,0.056-0.308,0.056-0.49V22.851z"/>
		<path fill="#FF0000" d="M178.342,24.055c0.07,0.883,0.938,1.303,1.933,1.303c0.729,0,1.317-0.098,1.891-0.28l0.28,1.443
			c-0.701,0.28-1.555,0.42-2.479,0.42c-2.325,0-3.656-1.345-3.656-3.488c0-1.737,1.079-3.656,3.46-3.656
			c2.213,0,3.053,1.723,3.053,3.418c0,0.364-0.042,0.687-0.07,0.84H178.342z M180.85,22.599c0-0.519-0.224-1.387-1.205-1.387
			c-0.896,0-1.261,0.813-1.316,1.387H180.85z"/>
		<path fill="#FF0000" d="M184.082,24.938c0.392,0.238,1.205,0.518,1.835,0.518c0.645,0,0.911-0.224,0.911-0.574
			s-0.21-0.519-1.009-0.785c-1.415-0.476-1.961-1.247-1.947-2.059c0-1.274,1.093-2.241,2.788-2.241c0.798,0,1.513,0.182,1.933,0.392
			l-0.378,1.471c-0.308-0.168-0.896-0.393-1.485-0.393c-0.518,0-0.813,0.21-0.813,0.561c0,0.322,0.266,0.49,1.107,0.784
			c1.303,0.448,1.849,1.107,1.863,2.115c0,1.275-1.008,2.213-2.97,2.213c-0.896,0-1.695-0.196-2.213-0.477L184.082,24.938z"/>
		<path fill="#FF0000" d="M192.371,18.046c0,0.588-0.448,1.065-1.149,1.065c-0.672,0-1.12-0.477-1.106-1.065
			c-0.014-0.616,0.435-1.079,1.121-1.079C191.922,16.967,192.356,17.43,192.371,18.046z M190.171,26.801v-6.85h2.129v6.85H190.171z"
			/>
		<path fill="#FF0000" d="M200.549,19.951c-0.028,0.434-0.056,1.008-0.056,2.031v3.824c0,1.317-0.266,2.396-1.037,3.082
			c-0.756,0.645-1.779,0.841-2.787,0.841c-0.896,0-1.849-0.182-2.465-0.532l0.42-1.611c0.434,0.252,1.191,0.518,1.989,0.518
			c1.008,0,1.779-0.546,1.779-1.807v-0.448h-0.028c-0.406,0.574-1.065,0.896-1.849,0.896c-1.695,0-2.899-1.373-2.899-3.348
			c0-2.199,1.429-3.6,3.109-3.6c0.938,0,1.527,0.406,1.877,0.967h0.028l0.07-0.813H200.549z M198.364,22.739
			c0-0.14-0.014-0.28-0.042-0.393c-0.154-0.56-0.561-0.938-1.149-0.938c-0.771,0-1.4,0.701-1.4,1.947c0,1.022,0.504,1.821,1.4,1.821
			c0.546,0,0.98-0.364,1.121-0.868c0.056-0.154,0.07-0.378,0.07-0.561V22.739z"/>
		<path fill="#FF0000" d="M202.197,22.136c0-0.854-0.028-1.583-0.056-2.185h1.849l0.098,0.938h0.042
			c0.28-0.434,0.98-1.093,2.115-1.093c1.4,0,2.451,0.925,2.451,2.942v4.062h-2.129v-3.796c0-0.883-0.308-1.485-1.078-1.485
			c-0.588,0-0.939,0.406-1.079,0.798c-0.056,0.126-0.084,0.336-0.084,0.532v3.95h-2.129V22.136z"/>
		<path fill="#FF0000" d="M212.699,17.99v1.961h1.527v1.569h-1.527V24c0,0.826,0.196,1.205,0.84,1.205
			c0.266,0,0.476-0.028,0.63-0.056l0.014,1.611c-0.28,0.112-0.785,0.182-1.387,0.182c-0.687,0-1.261-0.238-1.597-0.588
			c-0.392-0.406-0.588-1.064-0.588-2.031V21.52h-0.91v-1.569h0.91v-1.485L212.699,17.99z"/>
		<path fill="#FF0000" d="M222.151,23.299c0,2.507-1.779,3.656-3.614,3.656c-2.003,0-3.544-1.317-3.544-3.53
			c0-2.213,1.457-3.628,3.656-3.628C220.75,19.797,222.151,21.24,222.151,23.299z M217.192,23.369c0,1.176,0.49,2.059,1.4,2.059
			c0.827,0,1.359-0.827,1.359-2.059c0-1.023-0.392-2.059-1.359-2.059C217.57,21.31,217.192,22.36,217.192,23.369z"/>
		<path fill="#FF0000" d="M230.271,23.299c0,2.507-1.779,3.656-3.614,3.656c-2.003,0-3.544-1.317-3.544-3.53
			c0-2.213,1.457-3.628,3.656-3.628C228.87,19.797,230.271,21.24,230.271,23.299z M225.313,23.369c0,1.176,0.49,2.059,1.4,2.059
			c0.827,0,1.359-0.827,1.359-2.059c0-1.023-0.392-2.059-1.359-2.059C225.69,21.31,225.313,22.36,225.313,23.369z"/>
		<path fill="#FF0000" d="M231.583,16.855h2.129v9.945h-2.129V16.855z"/>
		<path fill="#FF0000" d="M237.563,22.836h0.028c0.154-0.28,0.322-0.56,0.49-0.826l1.387-2.059h2.563l-2.452,2.773l2.802,4.076
			h-2.62l-1.653-2.815l-0.546,0.672v2.143h-2.129v-9.945h2.129V22.836z"/>
		<path fill="#FF0000" d="M245.361,18.046c0,0.588-0.448,1.065-1.149,1.065c-0.672,0-1.12-0.477-1.106-1.065
			c-0.014-0.616,0.435-1.079,1.121-1.079C244.913,16.967,245.347,17.43,245.361,18.046z M243.162,26.801v-6.85h2.129v6.85H243.162z"
			/>
		<path fill="#FF0000" d="M249.379,17.99v1.961h1.527v1.569h-1.527V24c0,0.826,0.196,1.205,0.84,1.205
			c0.266,0,0.476-0.028,0.63-0.056l0.014,1.611c-0.28,0.112-0.785,0.182-1.387,0.182c-0.687,0-1.261-0.238-1.597-0.588
			c-0.392-0.406-0.588-1.064-0.588-2.031V21.52h-0.91v-1.569h0.91v-1.485L249.379,17.99z"/>
		<path fill="#FF0000" d="M251.869,25.666c0-0.756,0.519-1.303,1.261-1.303c0.743,0,1.247,0.533,1.247,1.303
			c0,0.743-0.504,1.289-1.26,1.289C252.387,26.955,251.869,26.409,251.869,25.666z"/>
		<path fill="#FF0000" d="M260.804,26.633c-0.378,0.168-1.093,0.308-1.905,0.308c-2.213,0-3.627-1.345-3.627-3.502
			c0-2.003,1.373-3.642,3.922-3.642c0.56,0,1.176,0.098,1.624,0.266l-0.336,1.583c-0.252-0.112-0.63-0.21-1.19-0.21
			c-1.121,0-1.849,0.798-1.835,1.919c0,1.261,0.841,1.919,1.877,1.919c0.504,0,0.896-0.084,1.219-0.21L260.804,26.633z"/>
		<path fill="#FF0000" d="M268.589,23.299c0,2.507-1.779,3.656-3.614,3.656c-2.003,0-3.544-1.317-3.544-3.53
			c0-2.213,1.457-3.628,3.656-3.628C267.188,19.797,268.589,21.24,268.589,23.299z M263.63,23.369c0,1.176,0.49,2.059,1.401,2.059
			c0.826,0,1.358-0.827,1.358-2.059c0-1.023-0.393-2.059-1.358-2.059C264.009,21.31,263.63,22.36,263.63,23.369z"/>
		<path fill="#FF0000" d="M269.901,22.136c0-0.854-0.028-1.583-0.056-2.185h1.793l0.098,0.924h0.042
			c0.294-0.434,0.896-1.079,2.073-1.079c0.883,0,1.583,0.448,1.877,1.163h0.028c0.252-0.35,0.56-0.63,0.882-0.826
			c0.379-0.224,0.799-0.336,1.303-0.336c1.317,0,2.312,0.925,2.312,2.97v4.034h-2.073v-3.726c0-0.995-0.322-1.569-1.009-1.569
			c-0.49,0-0.84,0.336-0.98,0.743c-0.056,0.154-0.084,0.378-0.084,0.546v4.006h-2.073v-3.838c0-0.869-0.308-1.457-0.98-1.457
			c-0.546,0-0.868,0.42-0.994,0.771c-0.07,0.168-0.084,0.364-0.084,0.532v3.992h-2.073V22.136z"/>
	</g>
	<g>
		<path fill="#FF0000" d="M26.59,67.545h-0.096l-5.953,2.833l-1.2-5.473l8.256-3.84h6.049v31.203H26.59V67.545z"/>
	</g>
</g>
<g id="Right">
	<path fill="#FFFFFF" stroke="#000000" stroke-miterlimit="10" d="M2.647,2.244v93.445h76.517l102.022-49.012h137.73l21.133,35.955
		c0,0,6.561,15.115,21.862,21.988c15.304,6.871,28.421-4.123,29.15-11.682c0.729-7.557,8.017-20.613-16.033-57.715
		C350.98-1.879,316.73,2.244,316.73,2.244H2.647z"/>
	<g>
		<g>
			<path fill="#FF0000" d="M20.037,33.831c-2.864-0.26-5.293-2.022-6.487-4.497h6.487v-6.221h-6.796
				c1.041-2.853,3.657-4.945,6.796-5.229v-6.096c-7.441,0.381-13.358,6.535-13.358,14.07c0,7.536,5.917,13.69,13.358,14.071V33.831z
				"/>
			<path fill="#FF0000" d="M22.781,11.913v6.188c3.45,0.893,5.998,4.026,5.998,7.755c0,3.729-2.548,6.863-5.998,7.756v6.188
				c6.828-0.977,12.077-6.847,12.077-13.944S29.609,12.89,22.781,11.913z"/>
		</g>
		<g>
			<path fill="#FF0000" d="M48.764,11.913v6.188c-3.45,0.893-5.998,4.026-5.998,7.755c0,3.729,2.548,6.863,5.998,7.756v6.188
				c-6.828-0.977-12.077-6.847-12.077-13.944S41.937,12.89,48.764,11.913z"/>
		</g>
	</g>
	<g>
		<path fill="#FF0000" d="M9.802,54.099L9.13,56.523H6.917l2.885-9.441h2.802l2.927,9.441h-2.297l-0.729-2.424H9.802z
			 M12.198,52.503L11.609,50.5c-0.168-0.561-0.336-1.261-0.476-1.82h-0.028c-0.14,0.56-0.28,1.274-0.434,1.82l-0.561,2.004H12.198z"
			/>
		<path fill="#FF0000" d="M21.662,56.355c-0.378,0.168-1.092,0.308-1.905,0.308c-2.213,0-3.628-1.345-3.628-3.501
			c0-2.004,1.373-3.643,3.922-3.643c0.561,0,1.177,0.098,1.625,0.266l-0.336,1.584c-0.252-0.112-0.63-0.211-1.19-0.211
			c-1.121,0-1.849,0.799-1.835,1.92c0,1.26,0.84,1.918,1.877,1.918c0.504,0,0.896-0.084,1.219-0.209L21.662,56.355z"/>
		<path fill="#FF0000" d="M29.293,54.324c0,0.896,0.028,1.625,0.056,2.199H27.5l-0.098-0.967H27.36
			c-0.266,0.421-0.911,1.121-2.143,1.121c-1.387,0-2.409-0.869-2.409-2.984v-4.02h2.143v3.684c0,0.994,0.322,1.598,1.064,1.598
			c0.588,0,0.924-0.406,1.064-0.742c0.056-0.127,0.07-0.295,0.07-0.463v-4.076h2.143V54.324z"/>
		<path fill="#FF0000" d="M33.197,47.768c0,0.589-0.448,1.065-1.149,1.065c-0.672,0-1.12-0.477-1.106-1.065
			c-0.014-0.616,0.435-1.079,1.121-1.079C32.749,46.689,33.183,47.152,33.197,47.768z M30.998,56.523v-6.85h2.129v6.85H30.998z"/>
		<path fill="#FF0000" d="M37.215,47.712v1.961h1.527v1.568h-1.527v2.479c0,0.827,0.196,1.205,0.84,1.205
			c0.266,0,0.476-0.028,0.63-0.056l0.014,1.61c-0.28,0.112-0.785,0.182-1.387,0.182c-0.687,0-1.261-0.237-1.597-0.588
			c-0.392-0.406-0.588-1.064-0.588-2.031v-2.802h-0.91v-1.568h0.91v-1.484L37.215,47.712z"/>
		<path fill="#FF0000" d="M41.638,49.673l1.022,3.361c0.112,0.406,0.252,0.911,0.336,1.275h0.042
			c0.098-0.364,0.21-0.883,0.308-1.275l0.84-3.361h2.284l-1.597,4.51c-0.98,2.718-1.639,3.811-2.409,4.497
			c-0.743,0.645-1.527,0.868-2.059,0.938l-0.448-1.807c0.266-0.042,0.602-0.168,0.924-0.364c0.322-0.168,0.672-0.505,0.882-0.854
			c0.07-0.099,0.112-0.21,0.112-0.309c0-0.07-0.014-0.182-0.098-0.35l-2.507-6.262H41.638z"/>
		<path fill="#FF0000" d="M54.085,56.523l-0.126-0.687h-0.042c-0.448,0.547-1.149,0.841-1.961,0.841
			c-1.387,0-2.213-1.009-2.213-2.102c0-1.779,1.597-2.633,4.02-2.619v-0.098c0-0.365-0.196-0.883-1.247-0.883
			c-0.7,0-1.443,0.238-1.891,0.518l-0.392-1.372c0.476-0.267,1.415-0.603,2.662-0.603c2.283,0,3.011,1.345,3.011,2.955v2.382
			c0,0.658,0.028,1.289,0.098,1.667H54.085z M53.833,53.287c-1.121-0.014-1.989,0.253-1.989,1.079c0,0.546,0.364,0.813,0.84,0.813
			c0.532,0,0.967-0.351,1.107-0.784c0.028-0.112,0.042-0.238,0.042-0.364V53.287z"/>
		<path fill="#FF0000" d="M57.583,51.859c0-0.855-0.028-1.584-0.056-2.186h1.849l0.098,0.938h0.042
			c0.28-0.435,0.98-1.093,2.115-1.093c1.4,0,2.451,0.925,2.451,2.941v4.063h-2.129v-3.796c0-0.883-0.308-1.485-1.078-1.485
			c-0.588,0-0.939,0.406-1.079,0.799c-0.056,0.126-0.084,0.336-0.084,0.532v3.95h-2.129V51.859z"/>
		<path fill="#FF0000" d="M72.427,46.578v7.9c0,0.77,0.028,1.583,0.056,2.045h-1.891l-0.098-1.009h-0.028
			c-0.435,0.771-1.261,1.163-2.144,1.163c-1.625,0-2.927-1.387-2.927-3.516c-0.014-2.312,1.429-3.643,3.067-3.643
			c0.84,0,1.499,0.295,1.807,0.771h0.028v-3.712H72.427z M70.297,52.573c0-0.112-0.014-0.267-0.028-0.378
			c-0.126-0.574-0.588-1.051-1.247-1.051c-0.967,0-1.471,0.869-1.471,1.947c0,1.162,0.574,1.891,1.457,1.891
			c0.616,0,1.106-0.42,1.233-1.022c0.042-0.153,0.056-0.308,0.056-0.49V52.573z"/>
		<path fill="#FF0000" d="M14.537,73.057c-0.393,0.196-1.275,0.406-2.423,0.406c-3.264,0-4.945-2.03-4.945-4.72
			c0-3.222,2.297-5.015,5.155-5.015c1.106,0,1.947,0.224,2.325,0.42l-0.434,1.694c-0.434-0.182-1.037-0.35-1.793-0.35
			c-1.695,0-3.012,1.022-3.012,3.123c0,1.892,1.121,3.082,3.026,3.082c0.644,0,1.358-0.14,1.779-0.308L14.537,73.057z"/>
		<path fill="#FF0000" d="M22.362,69.822c0,2.508-1.779,3.656-3.614,3.656c-2.003,0-3.544-1.317-3.544-3.53s1.457-3.628,3.656-3.628
			C20.961,66.32,22.362,67.763,22.362,69.822z M17.404,69.892c0,1.177,0.49,2.059,1.4,2.059c0.827,0,1.359-0.826,1.359-2.059
			c0-1.022-0.392-2.06-1.359-2.06C17.782,67.833,17.404,68.883,17.404,69.892z"/>
		<path fill="#FF0000" d="M23.675,68.66c0-0.854-0.028-1.583-0.056-2.186h1.849l0.098,0.938h0.042
			c0.28-0.435,0.98-1.093,2.115-1.093c1.4,0,2.451,0.925,2.451,2.941v4.063h-2.129v-3.796c0-0.883-0.308-1.485-1.078-1.485
			c-0.588,0-0.939,0.406-1.079,0.799c-0.056,0.126-0.084,0.336-0.084,0.532v3.95h-2.129V68.66z"/>
		<path fill="#FF0000" d="M34.176,64.513v1.961h1.527v1.568h-1.527v2.479c0,0.827,0.196,1.205,0.84,1.205
			c0.266,0,0.476-0.028,0.63-0.057l0.014,1.611c-0.28,0.112-0.785,0.182-1.387,0.182c-0.687,0-1.261-0.237-1.597-0.588
			c-0.392-0.406-0.588-1.064-0.588-2.031v-2.802h-0.91v-1.568h0.91v-1.485L34.176,64.513z"/>
		<path fill="#FF0000" d="M36.933,68.729c0-1.009-0.028-1.667-0.056-2.255h1.835l0.07,1.261h0.056
			c0.351-0.995,1.191-1.415,1.849-1.415c0.196,0,0.294,0,0.448,0.028v2.003c-0.154-0.028-0.336-0.056-0.574-0.056
			c-0.784,0-1.317,0.42-1.457,1.078c-0.028,0.14-0.042,0.309-0.042,0.477v3.474h-2.129V68.729z"/>
		<path fill="#FF0000" d="M45.993,73.324l-0.126-0.687h-0.042c-0.448,0.547-1.149,0.841-1.961,0.841
			c-1.387,0-2.213-1.009-2.213-2.102c0-1.778,1.597-2.633,4.02-2.619V68.66c0-0.364-0.196-0.883-1.247-0.883
			c-0.7,0-1.443,0.238-1.891,0.519l-0.392-1.373c0.476-0.267,1.415-0.603,2.662-0.603c2.283,0,3.011,1.345,3.011,2.956v2.381
			c0,0.658,0.028,1.289,0.098,1.667H45.993z M45.741,70.088c-1.121-0.015-1.989,0.252-1.989,1.078c0,0.546,0.364,0.813,0.84,0.813
			c0.532,0,0.967-0.351,1.107-0.784c0.028-0.112,0.042-0.238,0.042-0.364V70.088z"/>
		<path fill="#FF0000" d="M49.477,71.46c0.393,0.238,1.205,0.519,1.835,0.519c0.645,0,0.911-0.224,0.911-0.574
			s-0.21-0.519-1.008-0.784c-1.415-0.477-1.961-1.247-1.947-2.06c0-1.274,1.093-2.241,2.788-2.241c0.798,0,1.513,0.183,1.933,0.393
			l-0.378,1.471c-0.308-0.168-0.896-0.393-1.485-0.393c-0.518,0-0.813,0.21-0.813,0.561c0,0.322,0.266,0.49,1.107,0.784
			c1.303,0.448,1.849,1.106,1.863,2.115c0,1.274-1.008,2.213-2.97,2.213c-0.896,0-1.695-0.195-2.213-0.476L49.477,71.46z"/>
		<path fill="#FF0000" d="M57.948,64.513v1.961h1.527v1.568h-1.527v2.479c0,0.827,0.196,1.205,0.84,1.205
			c0.266,0,0.476-0.028,0.63-0.057l0.014,1.611c-0.28,0.112-0.785,0.182-1.387,0.182c-0.687,0-1.261-0.237-1.597-0.588
			c-0.392-0.406-0.588-1.064-0.588-2.031v-2.802h-0.91v-1.568h0.91v-1.485L57.948,64.513z"/>
		<path fill="#FF0000" d="M63.602,63.882h2.144v7.648H69.5v1.793h-5.897V63.882z"/>
		<path fill="#FF0000" d="M77.326,69.822c0,2.508-1.779,3.656-3.614,3.656c-2.003,0-3.544-1.317-3.544-3.53s1.457-3.628,3.656-3.628
			C75.925,66.32,77.326,67.763,77.326,69.822z M72.368,69.892c0,1.177,0.49,2.059,1.4,2.059c0.827,0,1.359-0.826,1.359-2.059
			c0-1.022-0.392-2.06-1.359-2.06C72.746,67.833,72.368,68.883,72.368,69.892z"/>
		<path fill="#FF0000" d="M78.625,71.46c0.392,0.238,1.205,0.519,1.835,0.519c0.645,0,0.911-0.224,0.911-0.574
			s-0.21-0.519-1.009-0.784c-1.415-0.477-1.961-1.247-1.947-2.06c0-1.274,1.093-2.241,2.788-2.241c0.798,0,1.513,0.183,1.933,0.393
			l-0.378,1.471c-0.308-0.168-0.896-0.393-1.485-0.393c-0.518,0-0.813,0.21-0.813,0.561c0,0.322,0.266,0.49,1.107,0.784
			c1.303,0.448,1.849,1.106,1.863,2.115c0,1.274-1.008,2.213-2.97,2.213c-0.896,0-1.695-0.195-2.213-0.476L78.625,71.46z"/>
		<path fill="#FF0000" d="M84.7,71.46c0.393,0.238,1.205,0.519,1.835,0.519c0.645,0,0.911-0.224,0.911-0.574
			s-0.21-0.519-1.008-0.784c-1.415-0.477-1.961-1.247-1.947-2.06c0-1.274,1.093-2.241,2.788-2.241c0.798,0,1.513,0.183,1.933,0.393
			l-0.378,1.471c-0.308-0.168-0.896-0.393-1.485-0.393c-0.518,0-0.813,0.21-0.813,0.561c0,0.322,0.266,0.49,1.107,0.784
			c1.303,0.448,1.849,1.106,1.863,2.115c0,1.274-1.008,2.213-2.97,2.213c-0.896,0-1.695-0.195-2.213-0.476L84.7,71.46z"/>
		<path fill="#FF0000" d="M10.601,80.444c-0.798,1.289-1.415,3.166-1.415,5.674c0,2.465,0.63,4.328,1.415,5.631H9.116
			c-0.757-1.079-1.597-2.941-1.597-5.646c0.014-2.717,0.84-4.566,1.597-5.659H10.601z"/>
		<path fill="#FF0000" d="M11.999,80.682h2.144v7.648h3.754v1.793h-5.897V80.682z"/>
		<path fill="#FF0000" d="M20.596,87.378c0.07,0.882,0.938,1.303,1.933,1.303c0.729,0,1.317-0.099,1.891-0.28l0.28,1.442
			c-0.701,0.28-1.555,0.42-2.479,0.42c-2.325,0-3.656-1.345-3.656-3.487c0-1.737,1.079-3.656,3.459-3.656
			c2.213,0,3.054,1.723,3.054,3.418c0,0.364-0.042,0.687-0.07,0.841H20.596z M23.103,85.921c0-0.519-0.224-1.387-1.205-1.387
			c-0.896,0-1.261,0.813-1.316,1.387H23.103z"/>
		<path fill="#FF0000" d="M27.848,83.274l0.924,3.18c0.168,0.574,0.294,1.12,0.392,1.667h0.042c0.112-0.561,0.224-1.079,0.378-1.667
			l0.882-3.18h2.241l-2.549,6.85H28.03l-2.494-6.85H27.848z"/>
		<path fill="#FF0000" d="M35.114,87.378c0.07,0.882,0.938,1.303,1.933,1.303c0.729,0,1.317-0.099,1.891-0.28l0.28,1.442
			c-0.701,0.28-1.555,0.42-2.479,0.42c-2.325,0-3.656-1.345-3.656-3.487c0-1.737,1.079-3.656,3.46-3.656
			c2.213,0,3.053,1.723,3.053,3.418c0,0.364-0.042,0.687-0.07,0.841H35.114z M37.621,85.921c0-0.519-0.224-1.387-1.205-1.387
			c-0.896,0-1.261,0.813-1.316,1.387H37.621z"/>
		<path fill="#FF0000" d="M40.867,80.178h2.129v9.945h-2.129V80.178z"/>
		<path fill="#FF0000" d="M49.997,82.91h-0.028l-1.737,0.826l-0.351-1.597l2.41-1.12h1.765v9.104h-2.059V82.91z"/>
		<path fill="#FF0000" d="M54.951,91.749c0.771-1.289,1.415-3.18,1.415-5.659s-0.63-4.343-1.415-5.646h1.485
			c0.742,1.079,1.597,2.914,1.597,5.646c-0.014,2.731-0.854,4.566-1.597,5.659H54.951z"/>
	</g>
	<g>
		<path fill="#FF0000" d="M138.372,28.924c-0.393,0.196-1.275,0.406-2.423,0.406c-3.264,0-4.945-2.031-4.945-4.721
			c0-3.222,2.297-5.015,5.155-5.015c1.106,0,1.947,0.224,2.325,0.42l-0.434,1.695c-0.434-0.182-1.037-0.35-1.793-0.35
			c-1.695,0-3.012,1.022-3.012,3.124c0,1.891,1.121,3.082,3.026,3.082c0.644,0,1.358-0.14,1.779-0.308L138.372,28.924z"/>
		<path fill="#FF0000" d="M143.452,29.19l-0.126-0.687h-0.042c-0.448,0.546-1.149,0.841-1.961,0.841
			c-1.387,0-2.213-1.009-2.213-2.102c0-1.779,1.597-2.633,4.02-2.619v-0.098c0-0.364-0.196-0.882-1.247-0.882
			c-0.7,0-1.443,0.238-1.891,0.518l-0.392-1.373c0.476-0.266,1.415-0.603,2.662-0.603c2.283,0,3.011,1.345,3.011,2.956v2.381
			c0,0.659,0.028,1.289,0.098,1.667H143.452z M143.2,25.955c-1.121-0.014-1.989,0.252-1.989,1.079c0,0.546,0.364,0.813,0.84,0.813
			c0.532,0,0.967-0.35,1.107-0.785c0.028-0.112,0.042-0.238,0.042-0.364V25.955z"/>
		<path fill="#FF0000" d="M146.95,24.526c0-0.854-0.028-1.583-0.056-2.185h1.793l0.098,0.924h0.042
			c0.294-0.434,0.896-1.079,2.073-1.079c0.882,0,1.583,0.448,1.877,1.163h0.028c0.252-0.35,0.561-0.63,0.883-0.826
			c0.378-0.224,0.798-0.336,1.303-0.336c1.316,0,2.311,0.925,2.311,2.97v4.034h-2.073v-3.726c0-0.995-0.322-1.569-1.008-1.569
			c-0.49,0-0.841,0.336-0.98,0.743c-0.056,0.154-0.084,0.378-0.084,0.546v4.006h-2.073v-3.838c0-0.869-0.308-1.457-0.98-1.457
			c-0.546,0-0.869,0.42-0.995,0.771c-0.07,0.168-0.084,0.364-0.084,0.532v3.992h-2.073V24.526z"/>
		<path fill="#FF0000" d="M158.934,29.19c0.028-0.448,0.056-1.275,0.056-2.045v-7.9h2.129v3.908h0.028
			c0.406-0.588,1.121-0.967,2.073-0.967c1.639,0,2.843,1.359,2.829,3.46c0,2.465-1.569,3.698-3.138,3.698
			c-0.798,0-1.569-0.294-2.059-1.107h-0.028l-0.084,0.953H158.934z M161.119,26.277c0,0.14,0.014,0.266,0.042,0.378
			c0.14,0.574,0.63,1.008,1.247,1.008c0.91,0,1.471-0.7,1.471-1.933c0-1.064-0.476-1.905-1.471-1.905
			c-0.575,0-1.107,0.434-1.247,1.05c-0.028,0.126-0.042,0.252-0.042,0.392V26.277z"/>
		<path fill="#FF0000" d="M167.362,24.596c0-1.009-0.028-1.667-0.056-2.255h1.835l0.07,1.261h0.056
			c0.351-0.995,1.191-1.415,1.849-1.415c0.196,0,0.294,0,0.448,0.028v2.003c-0.154-0.028-0.336-0.056-0.574-0.056
			c-0.785,0-1.317,0.42-1.457,1.079c-0.028,0.14-0.042,0.308-0.042,0.476v3.474h-2.129V24.596z"/>
		<path fill="#FF0000" d="M174.881,20.436c0,0.588-0.448,1.065-1.148,1.065c-0.673,0-1.121-0.477-1.107-1.065
			c-0.014-0.616,0.434-1.079,1.121-1.079S174.867,19.819,174.881,20.436z M172.682,29.19v-6.85h2.129v6.85H172.682z"/>
		<path fill="#FF0000" d="M183.157,19.245v7.9c0,0.77,0.028,1.583,0.056,2.045h-1.891l-0.098-1.008h-0.028
			c-0.435,0.77-1.261,1.163-2.144,1.163c-1.625,0-2.927-1.387-2.927-3.516c-0.014-2.311,1.429-3.642,3.067-3.642
			c0.84,0,1.499,0.294,1.807,0.771h0.028v-3.712H183.157z M181.028,25.24c0-0.112-0.014-0.266-0.028-0.378
			c-0.126-0.575-0.588-1.051-1.247-1.051c-0.967,0-1.471,0.869-1.471,1.947c0,1.163,0.574,1.891,1.457,1.891
			c0.616,0,1.106-0.42,1.233-1.022c0.042-0.154,0.056-0.308,0.056-0.49V25.24z"/>
		<path fill="#FF0000" d="M191.403,22.341c-0.028,0.434-0.056,1.008-0.056,2.031v3.824c0,1.317-0.266,2.396-1.037,3.082
			c-0.756,0.645-1.779,0.841-2.787,0.841c-0.896,0-1.849-0.182-2.465-0.532l0.42-1.611c0.435,0.252,1.191,0.518,1.989,0.518
			c1.008,0,1.779-0.546,1.779-1.807v-0.448h-0.028c-0.406,0.574-1.064,0.896-1.849,0.896c-1.695,0-2.899-1.373-2.899-3.348
			c0-2.199,1.429-3.6,3.109-3.6c0.938,0,1.527,0.406,1.877,0.967h0.028l0.07-0.813H191.403z M189.218,25.128
			c0-0.14-0.014-0.28-0.042-0.393c-0.154-0.56-0.561-0.938-1.149-0.938c-0.77,0-1.4,0.701-1.4,1.947c0,1.022,0.504,1.821,1.4,1.821
			c0.546,0,0.98-0.364,1.121-0.868c0.056-0.154,0.07-0.378,0.07-0.561V25.128z"/>
		<path fill="#FF0000" d="M194.69,26.445c0.07,0.883,0.938,1.303,1.933,1.303c0.729,0,1.317-0.098,1.891-0.28l0.28,1.443
			c-0.701,0.28-1.555,0.42-2.479,0.42c-2.325,0-3.656-1.345-3.656-3.488c0-1.737,1.079-3.656,3.46-3.656
			c2.213,0,3.053,1.723,3.053,3.418c0,0.364-0.042,0.687-0.07,0.84H194.69z M197.197,24.988c0-0.519-0.224-1.387-1.205-1.387
			c-0.896,0-1.261,0.813-1.316,1.387H197.197z"/>
		<path fill="#FF0000" d="M203.412,26.991c0.574,0.294,1.457,0.588,2.367,0.588c0.98,0,1.499-0.406,1.499-1.022
			c0-0.588-0.448-0.925-1.583-1.331c-1.569-0.546-2.591-1.415-2.591-2.787c0-1.611,1.345-2.844,3.572-2.844
			c1.064,0,1.849,0.224,2.409,0.476l-0.476,1.723c-0.378-0.182-1.051-0.448-1.975-0.448s-1.373,0.42-1.373,0.911
			c0,0.602,0.532,0.868,1.751,1.331c1.667,0.616,2.451,1.485,2.451,2.815c0,1.583-1.219,2.928-3.81,2.928
			c-1.079,0-2.143-0.28-2.675-0.574L203.412,26.991z"/>
		<path fill="#FF0000" d="M213.031,20.436c0,0.588-0.448,1.065-1.149,1.065c-0.672,0-1.12-0.477-1.106-1.065
			c-0.014-0.616,0.435-1.079,1.121-1.079C212.583,19.357,213.017,19.819,213.031,20.436z M210.832,29.19v-6.85h2.129v6.85H210.832z"
			/>
		<path fill="#FF0000" d="M214.667,24.526c0-0.854-0.028-1.583-0.056-2.185h1.793l0.098,0.924h0.042
			c0.294-0.434,0.896-1.079,2.073-1.079c0.882,0,1.583,0.448,1.877,1.163h0.028c0.252-0.35,0.561-0.63,0.883-0.826
			c0.378-0.224,0.798-0.336,1.303-0.336c1.316,0,2.311,0.925,2.311,2.97v4.034h-2.073v-3.726c0-0.995-0.322-1.569-1.008-1.569
			c-0.49,0-0.841,0.336-0.98,0.743c-0.056,0.154-0.084,0.378-0.084,0.546v4.006H218.8v-3.838c0-0.869-0.308-1.457-0.98-1.457
			c-0.546,0-0.869,0.42-0.995,0.771c-0.07,0.168-0.084,0.364-0.084,0.532v3.992h-2.073V24.526z"/>
		<path fill="#FF0000" d="M233.165,26.991c0,0.896,0.028,1.625,0.056,2.199h-1.849l-0.098-0.966h-0.042
			c-0.266,0.42-0.911,1.121-2.143,1.121c-1.387,0-2.409-0.869-2.409-2.984v-4.02h2.143v3.684c0,0.994,0.322,1.597,1.064,1.597
			c0.588,0,0.924-0.406,1.064-0.742c0.056-0.126,0.07-0.294,0.07-0.462v-4.076h2.143V26.991z"/>
		<path fill="#FF0000" d="M234.87,19.245h2.129v9.945h-2.129V19.245z"/>
		<path fill="#FF0000" d="M242.614,29.19l-0.126-0.687h-0.042c-0.448,0.546-1.149,0.841-1.961,0.841
			c-1.387,0-2.213-1.009-2.213-2.102c0-1.779,1.597-2.633,4.02-2.619v-0.098c0-0.364-0.196-0.882-1.247-0.882
			c-0.7,0-1.443,0.238-1.891,0.518l-0.392-1.373c0.476-0.266,1.415-0.603,2.662-0.603c2.283,0,3.011,1.345,3.011,2.956v2.381
			c0,0.659,0.028,1.289,0.098,1.667H242.614z M242.362,25.955c-1.121-0.014-1.989,0.252-1.989,1.079c0,0.546,0.364,0.813,0.84,0.813
			c0.532,0,0.967-0.35,1.107-0.785c0.028-0.112,0.042-0.238,0.042-0.364V25.955z"/>
		<path fill="#FF0000" d="M248.381,20.38v1.961h1.527v1.569h-1.527v2.479c0,0.826,0.196,1.205,0.84,1.205
			c0.266,0,0.476-0.028,0.63-0.056l0.014,1.611c-0.28,0.112-0.785,0.182-1.387,0.182c-0.687,0-1.261-0.238-1.597-0.588
			c-0.392-0.406-0.588-1.064-0.588-2.031V23.91h-0.91v-1.569h0.91v-1.485L248.381,20.38z"/>
		<path fill="#FF0000" d="M253.337,20.436c0,0.588-0.448,1.065-1.148,1.065c-0.673,0-1.121-0.477-1.107-1.065
			c-0.014-0.616,0.434-1.079,1.121-1.079S253.323,19.819,253.337,20.436z M251.138,29.19v-6.85h2.129v6.85H251.138z"/>
		<path fill="#FF0000" d="M261.739,25.688c0,2.507-1.779,3.656-3.614,3.656c-2.003,0-3.544-1.317-3.544-3.53
			c0-2.213,1.457-3.628,3.656-3.628C260.338,22.187,261.739,23.629,261.739,25.688z M256.781,25.759c0,1.176,0.49,2.059,1.4,2.059
			c0.827,0,1.359-0.827,1.359-2.059c0-1.023-0.392-2.059-1.359-2.059C257.159,23.7,256.781,24.75,256.781,25.759z"/>
		<path fill="#FF0000" d="M263.052,24.526c0-0.854-0.028-1.583-0.056-2.185h1.849l0.098,0.938h0.042
			c0.28-0.434,0.98-1.093,2.115-1.093c1.4,0,2.451,0.925,2.451,2.942v4.062h-2.129v-3.796c0-0.883-0.308-1.485-1.078-1.485
			c-0.588,0-0.939,0.406-1.079,0.798c-0.056,0.126-0.084,0.336-0.084,0.532v3.95h-2.129V24.526z"/>
		<path fill="#FF0000" d="M282.04,28.756c-0.658,0.224-1.905,0.532-3.151,0.532c-1.724,0-2.97-0.435-3.839-1.275
			c-0.867-0.813-1.344-2.045-1.33-3.432c0.014-3.138,2.297-4.931,5.393-4.931c1.219,0,2.157,0.238,2.62,0.462l-0.448,1.708
			c-0.519-0.224-1.163-0.406-2.199-0.406c-1.779,0-3.124,1.009-3.124,3.054c0,1.947,1.219,3.096,2.97,3.096
			c0.49,0,0.883-0.056,1.051-0.14V25.45h-1.457v-1.667h3.516V28.756z"/>
		<path fill="#FF0000" d="M283.674,19.245h2.129v9.945h-2.129V19.245z"/>
		<path fill="#FF0000" d="M291.418,29.19l-0.127-0.687h-0.042c-0.448,0.546-1.148,0.841-1.961,0.841
			c-1.387,0-2.213-1.009-2.213-2.102c0-1.779,1.597-2.633,4.021-2.619v-0.098c0-0.364-0.196-0.882-1.247-0.882
			c-0.7,0-1.442,0.238-1.891,0.518l-0.393-1.373c0.477-0.266,1.415-0.603,2.661-0.603c2.283,0,3.012,1.345,3.012,2.956v2.381
			c0,0.659,0.028,1.289,0.099,1.667H291.418z M291.165,25.955c-1.12-0.014-1.988,0.252-1.988,1.079c0,0.546,0.363,0.813,0.84,0.813
			c0.532,0,0.967-0.35,1.106-0.785c0.028-0.112,0.042-0.238,0.042-0.364V25.955z"/>
		<path fill="#FF0000" d="M294.901,27.328c0.392,0.238,1.204,0.518,1.835,0.518c0.644,0,0.91-0.224,0.91-0.574
			s-0.21-0.519-1.009-0.785c-1.414-0.476-1.961-1.247-1.947-2.059c0-1.274,1.093-2.241,2.788-2.241c0.798,0,1.513,0.182,1.933,0.392
			l-0.378,1.471c-0.309-0.168-0.896-0.393-1.484-0.393c-0.519,0-0.813,0.21-0.813,0.561c0,0.322,0.266,0.49,1.106,0.784
			c1.303,0.448,1.849,1.107,1.863,2.115c0,1.275-1.009,2.213-2.97,2.213c-0.896,0-1.695-0.196-2.214-0.477L294.901,27.328z"/>
		<path fill="#FF0000" d="M300.978,27.328c0.392,0.238,1.204,0.518,1.835,0.518c0.644,0,0.91-0.224,0.91-0.574
			s-0.21-0.519-1.009-0.785c-1.414-0.476-1.961-1.247-1.947-2.059c0-1.274,1.093-2.241,2.788-2.241c0.798,0,1.513,0.182,1.933,0.392
			l-0.378,1.471c-0.309-0.168-0.896-0.393-1.484-0.393c-0.519,0-0.813,0.21-0.813,0.561c0,0.322,0.266,0.49,1.106,0.784
			c1.303,0.448,1.849,1.107,1.863,2.115c0,1.275-1.009,2.213-2.97,2.213c-0.896,0-1.695-0.196-2.214-0.477L300.978,27.328z"/>
		<path fill="#FF0000" d="M308.706,26.445c0.07,0.883,0.938,1.303,1.934,1.303c0.729,0,1.316-0.098,1.891-0.28l0.28,1.443
			c-0.7,0.28-1.555,0.42-2.479,0.42c-2.325,0-3.656-1.345-3.656-3.488c0-1.737,1.079-3.656,3.46-3.656
			c2.214,0,3.054,1.723,3.054,3.418c0,0.364-0.042,0.687-0.07,0.84H308.706z M311.214,24.988c0-0.519-0.225-1.387-1.205-1.387
			c-0.896,0-1.261,0.813-1.316,1.387H311.214z"/>
		<path fill="#FF0000" d="M314.445,27.328c0.392,0.238,1.204,0.518,1.835,0.518c0.644,0,0.91-0.224,0.91-0.574
			s-0.21-0.519-1.009-0.785c-1.414-0.476-1.961-1.247-1.947-2.059c0-1.274,1.093-2.241,2.788-2.241c0.798,0,1.513,0.182,1.933,0.392
			l-0.378,1.471c-0.309-0.168-0.896-0.393-1.484-0.393c-0.519,0-0.813,0.21-0.813,0.561c0,0.322,0.266,0.49,1.106,0.784
			c1.303,0.448,1.849,1.107,1.863,2.115c0,1.275-1.009,2.213-2.97,2.213c-0.896,0-1.695-0.196-2.214-0.477L314.445,27.328z"/>
	</g>
	<g>
		<path fill="#FF0000" d="M366.952,70.274h-0.097l-5.952,2.833l-1.2-5.473l8.257-3.841h6.049v31.202h-7.057V70.274z"/>
	</g>
</g>
<g id="Front">
	<g>
		<g>
			<path fill="#FFFFFF" d="M495.205,0H248h-0.126H0.667L0,93.333h33.333c0,0,5,0.334,7,3.668c2,3.332,0.75,6.166,7,10
				c6.25,3.832,153.333,0.666,153.333,0.666s6.39-0.233,12-4.666s5.891-3.105,9.667-12.668s6.333-17,9.666-19.333
				c3.334-2.333,15-5,15-5h0.874c0,0,12.666,2.667,16,5s5.891,9.771,9.666,19.333s4.057,8.235,9.666,12.668
				c5.611,4.433,12,4.666,12,4.666s147.084,3.166,153.334-0.666c6.25-3.834,5-6.668,7-10c2-3.334,7-3.668,7-3.668h33.334L495.205,0z
				 M193.833,71.997c-7.72,14.108-26,15.333-26,15.333l-65.667,0.17c0,0-16.667,0.832-22-15.502c-5.333-16.334-1.333-40.333,2-45
				s11.662-13.814,28.667-13.334l59-0.333c0,0,19.667,1,24,16S197.5,61.997,193.833,71.997z M415.707,71.997
				c-5.332,16.334-22,15.502-22,15.502l-65.666-0.17c0,0-18.281-1.224-26-15.333c-3.667-10-4.333-27.667,0-42.667
				c4.332-15,24-16,24-16l59,0.333c17.004-0.48,25.332,8.667,28.666,13.334S421.041,55.663,415.707,71.997z"/>
		</g>
		<g>
			<path fill="none" stroke="#000000" stroke-miterlimit="10" d="M495.205,0H248h-0.126H0.667L0,93.333h33.333c0,0,5,0.334,7,3.668
				c2,3.332,0.75,6.166,7,10c6.25,3.832,153.333,0.666,153.333,0.666s6.39-0.233,12-4.666s5.891-3.105,9.667-12.668
				s6.333-17,9.666-19.333c3.334-2.333,15-5,15-5h0.874c0,0,12.666,2.667,16,5s5.891,9.771,9.666,19.333s4.057,8.235,9.666,12.668
				c5.611,4.433,12,4.666,12,4.666s147.084,3.166,153.334-0.666c6.25-3.834,5-6.668,7-10c2-3.334,7-3.668,7-3.668h33.334L495.205,0z
				 M193.833,71.997c-7.72,14.108-26,15.333-26,15.333l-65.667,0.17c0,0-16.667,0.832-22-15.502c-5.333-16.334-1.333-40.333,2-45
				s11.662-13.814,28.667-13.334l59-0.333c0,0,19.667,1,24,16S197.5,61.997,193.833,71.997z M415.707,71.997
				c-5.332,16.334-22,15.502-22,15.502l-65.666-0.17c0,0-18.281-1.224-26-15.333c-3.667-10-4.333-27.667,0-42.667
				c4.332-15,24-16,24-16l59,0.333c17.004-0.48,25.332,8.667,28.666,13.334S421.041,55.663,415.707,71.997z"/>
		</g>
	</g>
</g>
</svg>
