<?xml version="1.0" encoding="utf-8"?>
<!-- Generator: Adobe Illustrator 16.0.0, SVG Export Plug-In . SVG Version: 6.00 Build 0)  -->
<!DOCTYPE svg PUBLIC "-//W3C//DTD SVG 1.1//EN" "http://www.w3.org/Graphics/SVG/1.1/DTD/svg11.dtd">
<svg version="1.1" id="Layer_1" xmlns="http://www.w3.org/2000/svg" xmlns:xlink="http://www.w3.org/1999/xlink" x="0px" y="0px"
	 width="595.28px" height="841.89px" viewBox="0 0 595.28 841.89" enable-background="new 0 0 595.28 841.89" xml:space="preserve">
<path fill="#FFFFFF" stroke="#000000" stroke-miterlimit="10" d="M67.887,105.417c0,0,5,0.334,7,3.668c2,3.332,0.75,6.167,7,10
	s153.333,0.666,153.333,0.666s6-0.666,8-2.666s13.333-13.001,13.667-14.668c0.333-1.666,6.333-16.999,9.667-19.333
	s11.333-7.667,15-6s0-65,0-65H35.221l-0.667,93.333H67.887z"/>
<path fill="#FFFFFF" stroke="#000000" stroke-miterlimit="10" d="M145.386,25.748l59,1.667c0,0,19.667-1,24,14
	s3.667,32.667,0,42.667s-19.667,16.666-30,15.333s-61.667,0.169-61.667,0.169s-16.667,0.831-22-15.502s-1.333-40.333,2-45
	S128.381,25.267,145.386,25.748z"/>
<g>
	<g>
		<path fill="#FFFFFF" d="M544.908,129.138H297.703h-0.126H50.37l-0.667,93.333h33.333c0,0,5,0.334,7,3.668c2,3.332,0.75,6.166,7,10
			c6.25,3.832,153.333,0.666,153.333,0.666s6.39-0.233,12-4.666s5.891-3.105,9.667-12.668s6.333-17,9.666-19.333
			c3.334-2.333,15-5,15-5h0.874c0,0,12.666,2.667,16,5s5.891,9.771,9.666,19.333s4.057,8.235,9.666,12.668
			c5.611,4.433,12,4.666,12,4.666s147.084,3.166,153.334-0.666c6.25-3.834,5-6.668,7-10c2-3.334,7-3.668,7-3.668h33.334
			L544.908,129.138z M243.536,201.135c-7.72,14.108-26,15.333-26,15.333l-65.667,0.17c0,0-16.667,0.832-22-15.502
			c-5.333-16.334-1.333-40.333,2-45s11.662-13.814,28.667-13.334l59-0.333c0,0,19.667,1,24,16S247.203,191.135,243.536,201.135z
			 M465.41,201.135c-5.332,16.334-22,15.502-22,15.502l-65.666-0.17c0,0-18.281-1.224-26-15.333c-3.668-10-4.334-27.667,0-42.667
			c4.332-15,24-16,24-16l59,0.333c17.004-0.48,25.332,8.667,28.666,13.334S470.744,184.801,465.41,201.135z"/>
	</g>
	<g>
		<path fill="none" stroke="#000000" stroke-miterlimit="10" d="M544.908,129.138H297.703h-0.126H50.37l-0.667,93.333h33.333
			c0,0,5,0.334,7,3.668c2,3.332,0.75,6.166,7,10c6.25,3.832,153.333,0.666,153.333,0.666s6.39-0.233,12-4.666
			s5.891-3.105,9.667-12.668s6.333-17,9.666-19.333c3.334-2.333,15-5,15-5h0.874c0,0,12.666,2.667,16,5s5.891,9.771,9.666,19.333
			s4.057,8.235,9.666,12.668c5.611,4.433,12,4.666,12,4.666s147.084,3.166,153.334-0.666c6.25-3.834,5-6.668,7-10
			c2-3.334,7-3.668,7-3.668h33.334L544.908,129.138z M243.536,201.135c-7.72,14.108-26,15.333-26,15.333l-65.667,0.17
			c0,0-16.667,0.832-22-15.502c-5.333-16.334-1.333-40.333,2-45s11.662-13.814,28.667-13.334l59-0.333c0,0,19.667,1,24,16
			S247.203,191.135,243.536,201.135z M465.41,201.135c-5.332,16.334-22,15.502-22,15.502l-65.666-0.17c0,0-18.281-1.224-26-15.333
			c-3.668-10-4.334-27.667,0-42.667c4.332-15,24-16,24-16l59,0.333c17.004-0.48,25.332,8.667,28.666,13.334
			S470.744,184.801,465.41,201.135z"/>
	</g>
</g>
<path fill="#FFFFFF" stroke="#000000" stroke-miterlimit="10" d="M412.264,262.661v93.445h-76.518l-102.021-49.011H95.994
	L74.861,343.05c0,0-6.56,15.115-21.862,21.987c-15.304,6.871-28.42-4.123-29.149-11.681c-0.729-7.558-8.016-20.613,16.032-57.716
	c24.048-37.103,58.299-32.98,58.299-32.98H412.264z"/>
<path fill="#FFFFFF" stroke="#000000" stroke-miterlimit="10" d="M28.968,376.994v93.445h76.517l102.022-49.012h137.73
	l21.133,35.955c0,0,6.561,15.115,21.862,21.988c15.304,6.871,28.421-4.123,29.15-11.682c0.729-7.557,8.017-20.613-16.033-57.715
	c-24.048-37.104-58.298-32.98-58.298-32.98H28.968z"/>
<g>
	<g>
		<path fill="#E30613" d="M46.358,408.581c-2.864-0.26-5.293-2.022-6.487-4.497h6.487v-6.221h-6.796
			c1.041-2.853,3.657-4.945,6.796-5.229v-6.096C38.917,386.918,33,393.072,33,400.607c0,7.536,5.917,13.69,13.358,14.071V408.581z"
			/>
		<path fill="#E30613" d="M49.103,386.664v6.188c3.45,0.893,5.998,4.026,5.998,7.755c0,3.729-2.548,6.863-5.998,7.756v6.188
			c6.828-0.977,12.077-6.847,12.077-13.944S55.93,387.641,49.103,386.664z"/>
	</g>
	<g>
		<path fill="#E30613" d="M75.085,386.664v6.188c-3.45,0.893-5.998,4.026-5.998,7.755c0,3.729,2.548,6.863,5.998,7.756v6.188
			c-6.828-0.977-12.077-6.847-12.077-13.944S68.258,387.641,75.085,386.664z"/>
	</g>
</g>
<g>
	<path fill="#E30613" d="M36.124,428.85l-0.672,2.424h-2.213l2.885-9.441h2.802l2.927,9.441h-2.297l-0.729-2.424H36.124z
		 M38.519,427.254l-0.588-2.004c-0.168-0.561-0.336-1.261-0.476-1.82h-0.028c-0.14,0.56-0.28,1.274-0.434,1.82l-0.561,2.004H38.519z
		"/>
	<path fill="#E30613" d="M47.983,431.105c-0.378,0.168-1.092,0.308-1.905,0.308c-2.213,0-3.628-1.345-3.628-3.501
		c0-2.004,1.373-3.643,3.922-3.643c0.561,0,1.177,0.098,1.625,0.266l-0.336,1.584c-0.252-0.112-0.63-0.211-1.19-0.211
		c-1.121,0-1.849,0.799-1.835,1.92c0,1.26,0.84,1.918,1.877,1.918c0.504,0,0.896-0.084,1.219-0.209L47.983,431.105z"/>
	<path fill="#E30613" d="M55.614,429.074c0,0.896,0.028,1.625,0.056,2.199h-1.849l-0.098-0.967h-0.042
		c-0.266,0.421-0.911,1.121-2.143,1.121c-1.387,0-2.409-0.869-2.409-2.984v-4.02h2.143v3.684c0,0.994,0.322,1.598,1.064,1.598
		c0.588,0,0.924-0.406,1.064-0.742c0.056-0.127,0.07-0.295,0.07-0.463v-4.076h2.143V429.074z"/>
	<path fill="#E30613" d="M59.518,422.519c0,0.589-0.448,1.065-1.149,1.065c-0.672,0-1.12-0.477-1.106-1.065
		c-0.014-0.616,0.435-1.079,1.121-1.079C59.07,421.44,59.504,421.902,59.518,422.519z M57.319,431.273v-6.85h2.129v6.85H57.319z"/>
	<path fill="#E30613" d="M63.536,422.463v1.961h1.527v1.568h-1.527v2.479c0,0.827,0.196,1.205,0.84,1.205
		c0.266,0,0.476-0.028,0.63-0.056l0.014,1.61c-0.28,0.112-0.785,0.182-1.387,0.182c-0.687,0-1.261-0.237-1.597-0.588
		c-0.392-0.406-0.588-1.064-0.588-2.031v-2.802h-0.91v-1.568h0.91v-1.484L63.536,422.463z"/>
	<path fill="#E30613" d="M67.959,424.424l1.022,3.361c0.112,0.406,0.252,0.911,0.336,1.275h0.042
		c0.098-0.364,0.21-0.883,0.308-1.275l0.84-3.361h2.284l-1.597,4.51c-0.98,2.718-1.639,3.811-2.409,4.497
		c-0.743,0.645-1.527,0.868-2.059,0.938l-0.448-1.807c0.266-0.042,0.602-0.168,0.924-0.364c0.322-0.168,0.672-0.505,0.882-0.854
		c0.07-0.099,0.112-0.21,0.112-0.309c0-0.07-0.014-0.182-0.098-0.35l-2.507-6.262H67.959z"/>
	<path fill="#E30613" d="M80.406,431.273l-0.126-0.687h-0.042c-0.448,0.547-1.149,0.841-1.961,0.841
		c-1.387,0-2.213-1.009-2.213-2.102c0-1.779,1.597-2.633,4.02-2.619v-0.098c0-0.365-0.196-0.883-1.247-0.883
		c-0.7,0-1.443,0.238-1.891,0.518l-0.392-1.372c0.476-0.267,1.415-0.603,2.662-0.603c2.283,0,3.011,1.345,3.011,2.955v2.382
		c0,0.658,0.028,1.289,0.098,1.667H80.406z M80.154,428.037c-1.121-0.014-1.989,0.253-1.989,1.079c0,0.546,0.364,0.812,0.84,0.812
		c0.532,0,0.967-0.351,1.107-0.784c0.028-0.112,0.042-0.238,0.042-0.364V428.037z"/>
	<path fill="#E30613" d="M83.904,426.609c0-0.855-0.028-1.584-0.056-2.186h1.849l0.098,0.938h0.042
		c0.28-0.435,0.98-1.093,2.115-1.093c1.4,0,2.451,0.925,2.451,2.941v4.062h-2.129v-3.796c0-0.883-0.308-1.485-1.078-1.485
		c-0.588,0-0.939,0.406-1.079,0.799c-0.056,0.126-0.084,0.336-0.084,0.532v3.95h-2.129V426.609z"/>
	<path fill="#E30613" d="M98.748,421.328v7.9c0,0.77,0.028,1.583,0.056,2.045h-1.891l-0.098-1.009h-0.028
		c-0.435,0.771-1.261,1.163-2.144,1.163c-1.625,0-2.927-1.387-2.927-3.516c-0.014-2.312,1.429-3.643,3.067-3.643
		c0.84,0,1.499,0.295,1.807,0.771h0.028v-3.712H98.748z M96.619,427.323c0-0.112-0.014-0.267-0.028-0.378
		c-0.126-0.574-0.588-1.051-1.247-1.051c-0.967,0-1.471,0.869-1.471,1.947c0,1.162,0.574,1.891,1.457,1.891
		c0.616,0,1.106-0.42,1.233-1.022c0.042-0.153,0.056-0.308,0.056-0.49V427.323z"/>
	<path fill="#E30613" d="M40.858,447.808c-0.393,0.196-1.275,0.406-2.423,0.406c-3.264,0-4.945-2.03-4.945-4.72
		c0-3.222,2.297-5.015,5.155-5.015c1.106,0,1.947,0.224,2.325,0.42l-0.434,1.694c-0.434-0.182-1.037-0.35-1.793-0.35
		c-1.695,0-3.012,1.022-3.012,3.123c0,1.892,1.121,3.082,3.026,3.082c0.644,0,1.358-0.14,1.779-0.308L40.858,447.808z"/>
	<path fill="#E30613" d="M48.684,444.572c0,2.508-1.779,3.656-3.614,3.656c-2.003,0-3.544-1.317-3.544-3.53s1.457-3.628,3.656-3.628
		C47.283,441.07,48.684,442.514,48.684,444.572z M43.725,444.643c0,1.177,0.49,2.059,1.4,2.059c0.827,0,1.359-0.826,1.359-2.059
		c0-1.022-0.392-2.06-1.359-2.06C44.103,442.583,43.725,443.634,43.725,444.643z"/>
	<path fill="#E30613" d="M49.996,443.41c0-0.854-0.028-1.583-0.056-2.186h1.849l0.098,0.938h0.042
		c0.28-0.435,0.98-1.093,2.115-1.093c1.4,0,2.451,0.925,2.451,2.941v4.062h-2.129v-3.796c0-0.883-0.308-1.485-1.078-1.485
		c-0.588,0-0.939,0.406-1.079,0.799c-0.056,0.126-0.084,0.336-0.084,0.532v3.95h-2.129V443.41z"/>
	<path fill="#E30613" d="M60.498,439.264v1.961h1.527v1.568h-1.527v2.479c0,0.827,0.196,1.205,0.84,1.205
		c0.266,0,0.476-0.028,0.63-0.057l0.014,1.611c-0.28,0.112-0.785,0.182-1.387,0.182c-0.687,0-1.261-0.237-1.597-0.588
		c-0.392-0.406-0.588-1.064-0.588-2.031v-2.802H57.5v-1.568h0.91v-1.485L60.498,439.264z"/>
	<path fill="#E30613" d="M63.254,443.479c0-1.009-0.028-1.667-0.056-2.255h1.835l0.07,1.261h0.056
		c0.351-0.995,1.191-1.415,1.849-1.415c0.196,0,0.294,0,0.448,0.028v2.003c-0.154-0.028-0.336-0.056-0.574-0.056
		c-0.784,0-1.317,0.42-1.457,1.078c-0.028,0.14-0.042,0.309-0.042,0.477v3.474h-2.129V443.479z"/>
	<path fill="#E30613" d="M72.314,448.074l-0.126-0.687h-0.042c-0.448,0.547-1.149,0.841-1.961,0.841
		c-1.387,0-2.213-1.009-2.213-2.102c0-1.778,1.597-2.633,4.02-2.619v-0.098c0-0.364-0.196-0.883-1.247-0.883
		c-0.7,0-1.443,0.238-1.891,0.519l-0.392-1.373c0.476-0.267,1.415-0.603,2.662-0.603c2.283,0,3.011,1.345,3.011,2.956v2.381
		c0,0.658,0.028,1.289,0.098,1.667H72.314z M72.062,444.839c-1.121-0.015-1.989,0.252-1.989,1.078c0,0.546,0.364,0.812,0.84,0.812
		c0.532,0,0.967-0.351,1.107-0.784c0.028-0.112,0.042-0.238,0.042-0.364V444.839z"/>
	<path fill="#E30613" d="M75.798,446.211c0.393,0.238,1.205,0.519,1.835,0.519c0.645,0,0.911-0.224,0.911-0.574
		s-0.21-0.519-1.008-0.784c-1.415-0.477-1.961-1.247-1.947-2.06c0-1.274,1.093-2.241,2.788-2.241c0.798,0,1.513,0.183,1.933,0.393
		l-0.378,1.471c-0.308-0.168-0.896-0.393-1.485-0.393c-0.518,0-0.812,0.21-0.812,0.561c0,0.322,0.266,0.49,1.107,0.784
		c1.303,0.448,1.849,1.106,1.863,2.115c0,1.274-1.008,2.213-2.97,2.213c-0.896,0-1.695-0.195-2.213-0.476L75.798,446.211z"/>
	<path fill="#E30613" d="M84.269,439.264v1.961h1.527v1.568h-1.527v2.479c0,0.827,0.196,1.205,0.84,1.205
		c0.266,0,0.476-0.028,0.63-0.057l0.014,1.611c-0.28,0.112-0.785,0.182-1.387,0.182c-0.687,0-1.261-0.237-1.597-0.588
		c-0.392-0.406-0.588-1.064-0.588-2.031v-2.802h-0.91v-1.568h0.91v-1.485L84.269,439.264z"/>
	<path fill="#E30613" d="M89.923,438.633h2.144v7.648h3.754v1.793h-5.897V438.633z"/>
	<path fill="#E30613" d="M103.647,444.572c0,2.508-1.779,3.656-3.614,3.656c-2.003,0-3.544-1.317-3.544-3.53
		s1.457-3.628,3.656-3.628C102.247,441.07,103.647,442.514,103.647,444.572z M98.689,444.643c0,1.177,0.49,2.059,1.4,2.059
		c0.827,0,1.359-0.826,1.359-2.059c0-1.022-0.392-2.06-1.359-2.06C99.067,442.583,98.689,443.634,98.689,444.643z"/>
	<path fill="#E30613" d="M104.946,446.211c0.392,0.238,1.205,0.519,1.835,0.519c0.645,0,0.911-0.224,0.911-0.574
		s-0.21-0.519-1.009-0.784c-1.415-0.477-1.961-1.247-1.947-2.06c0-1.274,1.093-2.241,2.788-2.241c0.798,0,1.513,0.183,1.933,0.393
		l-0.378,1.471c-0.308-0.168-0.896-0.393-1.485-0.393c-0.518,0-0.812,0.21-0.812,0.561c0,0.322,0.266,0.49,1.107,0.784
		c1.303,0.448,1.849,1.106,1.863,2.115c0,1.274-1.008,2.213-2.97,2.213c-0.896,0-1.695-0.195-2.213-0.476L104.946,446.211z"/>
	<path fill="#E30613" d="M111.021,446.211c0.393,0.238,1.205,0.519,1.835,0.519c0.645,0,0.911-0.224,0.911-0.574
		s-0.21-0.519-1.008-0.784c-1.415-0.477-1.961-1.247-1.947-2.06c0-1.274,1.093-2.241,2.788-2.241c0.798,0,1.513,0.183,1.933,0.393
		l-0.378,1.471c-0.308-0.168-0.896-0.393-1.485-0.393c-0.518,0-0.812,0.21-0.812,0.561c0,0.322,0.266,0.49,1.107,0.784
		c1.303,0.448,1.849,1.106,1.863,2.115c0,1.274-1.008,2.213-2.97,2.213c-0.896,0-1.695-0.195-2.213-0.476L111.021,446.211z"/>
	<path fill="#E30613" d="M36.922,455.194c-0.798,1.289-1.415,3.166-1.415,5.674c0,2.465,0.63,4.328,1.415,5.631h-1.484
		c-0.757-1.079-1.597-2.941-1.597-5.646c0.014-2.717,0.84-4.566,1.597-5.659H36.922z"/>
	<path fill="#E30613" d="M38.32,455.433h2.144v7.648h3.754v1.793H38.32V455.433z"/>
	<path fill="#E30613" d="M46.917,462.129c0.07,0.882,0.938,1.303,1.933,1.303c0.729,0,1.317-0.099,1.891-0.28l0.28,1.442
		c-0.701,0.28-1.555,0.42-2.479,0.42c-2.325,0-3.656-1.345-3.656-3.487c0-1.737,1.079-3.656,3.459-3.656
		c2.213,0,3.054,1.723,3.054,3.418c0,0.364-0.042,0.687-0.07,0.841H46.917z M49.424,460.672c0-0.519-0.224-1.387-1.205-1.387
		c-0.896,0-1.261,0.812-1.316,1.387H49.424z"/>
	<path fill="#E30613" d="M54.169,458.024l0.924,3.18c0.168,0.574,0.294,1.12,0.392,1.667h0.042c0.112-0.561,0.224-1.079,0.378-1.667
		l0.882-3.18h2.241l-2.549,6.85h-2.129l-2.494-6.85H54.169z"/>
	<path fill="#E30613" d="M61.435,462.129c0.07,0.882,0.938,1.303,1.933,1.303c0.729,0,1.317-0.099,1.891-0.28l0.28,1.442
		c-0.701,0.28-1.555,0.42-2.479,0.42c-2.325,0-3.656-1.345-3.656-3.487c0-1.737,1.079-3.656,3.46-3.656
		c2.213,0,3.053,1.723,3.053,3.418c0,0.364-0.042,0.687-0.07,0.841H61.435z M63.942,460.672c0-0.519-0.224-1.387-1.205-1.387
		c-0.896,0-1.261,0.812-1.316,1.387H63.942z"/>
	<path fill="#E30613" d="M67.188,454.929h2.129v9.945h-2.129V454.929z"/>
	<path fill="#E30613" d="M76.318,457.66H76.29l-1.737,0.826l-0.351-1.597l2.41-1.12h1.765v9.104h-2.059V457.66z"/>
	<path fill="#E30613" d="M81.272,466.499c0.771-1.289,1.415-3.18,1.415-5.659s-0.63-4.343-1.415-5.646h1.485
		c0.742,1.079,1.597,2.914,1.597,5.646c-0.014,2.731-0.854,4.566-1.597,5.659H81.272z"/>
</g>
<g>
	<path fill="#E30613" d="M164.693,403.675c-0.393,0.196-1.275,0.406-2.423,0.406c-3.264,0-4.945-2.031-4.945-4.721
		c0-3.222,2.297-5.015,5.155-5.015c1.106,0,1.947,0.224,2.325,0.42l-0.434,1.695c-0.434-0.182-1.037-0.35-1.793-0.35
		c-1.695,0-3.012,1.022-3.012,3.124c0,1.891,1.121,3.082,3.026,3.082c0.644,0,1.358-0.14,1.779-0.308L164.693,403.675z"/>
	<path fill="#E30613" d="M169.773,403.941l-0.126-0.687h-0.042c-0.448,0.546-1.149,0.841-1.961,0.841
		c-1.387,0-2.213-1.009-2.213-2.102c0-1.779,1.597-2.633,4.02-2.619v-0.098c0-0.364-0.196-0.882-1.247-0.882
		c-0.7,0-1.443,0.238-1.891,0.518l-0.392-1.373c0.476-0.266,1.415-0.603,2.662-0.603c2.283,0,3.011,1.345,3.011,2.956v2.381
		c0,0.659,0.028,1.289,0.098,1.667H169.773z M169.521,400.705c-1.121-0.014-1.989,0.252-1.989,1.079c0,0.546,0.364,0.812,0.84,0.812
		c0.532,0,0.967-0.35,1.107-0.785c0.028-0.112,0.042-0.238,0.042-0.364V400.705z"/>
	<path fill="#E30613" d="M173.271,399.276c0-0.854-0.028-1.583-0.056-2.185h1.793l0.098,0.924h0.042
		c0.294-0.434,0.896-1.079,2.073-1.079c0.882,0,1.583,0.448,1.877,1.163h0.028c0.252-0.35,0.561-0.63,0.883-0.826
		c0.378-0.224,0.798-0.336,1.303-0.336c1.316,0,2.311,0.925,2.311,2.97v4.034h-2.073v-3.726c0-0.995-0.322-1.569-1.008-1.569
		c-0.49,0-0.841,0.336-0.98,0.743c-0.056,0.154-0.084,0.378-0.084,0.546v4.006h-2.073v-3.838c0-0.869-0.308-1.457-0.98-1.457
		c-0.546,0-0.869,0.42-0.995,0.771c-0.07,0.168-0.084,0.364-0.084,0.532v3.992h-2.073V399.276z"/>
	<path fill="#E30613" d="M185.255,403.941c0.028-0.448,0.056-1.275,0.056-2.045v-7.9h2.129v3.908h0.028
		c0.406-0.588,1.121-0.967,2.073-0.967c1.639,0,2.843,1.359,2.829,3.46c0,2.465-1.569,3.698-3.138,3.698
		c-0.798,0-1.569-0.294-2.059-1.107h-0.028l-0.084,0.953H185.255z M187.44,401.027c0,0.14,0.014,0.266,0.042,0.378
		c0.14,0.574,0.63,1.008,1.247,1.008c0.91,0,1.471-0.7,1.471-1.933c0-1.064-0.476-1.905-1.471-1.905
		c-0.575,0-1.107,0.434-1.247,1.05c-0.028,0.126-0.042,0.252-0.042,0.392V401.027z"/>
	<path fill="#E30613" d="M193.683,399.347c0-1.009-0.028-1.667-0.056-2.255h1.835l0.07,1.261h0.056
		c0.351-0.995,1.191-1.415,1.849-1.415c0.196,0,0.294,0,0.448,0.028v2.003c-0.154-0.028-0.336-0.056-0.574-0.056
		c-0.785,0-1.317,0.42-1.457,1.079c-0.028,0.14-0.042,0.308-0.042,0.476v3.474h-2.129V399.347z"/>
	<path fill="#E30613" d="M201.202,395.186c0,0.588-0.448,1.065-1.148,1.065c-0.673,0-1.121-0.477-1.107-1.065
		c-0.014-0.616,0.434-1.079,1.121-1.079S201.188,394.57,201.202,395.186z M199.003,403.941v-6.85h2.129v6.85H199.003z"/>
	<path fill="#E30613" d="M209.479,393.996v7.9c0,0.77,0.028,1.583,0.056,2.045h-1.891l-0.098-1.008h-0.028
		c-0.435,0.77-1.261,1.163-2.144,1.163c-1.625,0-2.927-1.387-2.927-3.516c-0.014-2.311,1.429-3.642,3.067-3.642
		c0.84,0,1.499,0.294,1.807,0.771h0.028v-3.712H209.479z M207.349,399.991c0-0.112-0.014-0.266-0.028-0.378
		c-0.126-0.575-0.588-1.051-1.247-1.051c-0.967,0-1.471,0.869-1.471,1.947c0,1.163,0.574,1.891,1.457,1.891
		c0.616,0,1.106-0.42,1.233-1.022c0.042-0.154,0.056-0.308,0.056-0.49V399.991z"/>
	<path fill="#E30613" d="M217.724,397.091c-0.028,0.434-0.056,1.008-0.056,2.031v3.824c0,1.317-0.266,2.396-1.037,3.082
		c-0.756,0.645-1.779,0.841-2.787,0.841c-0.896,0-1.849-0.182-2.465-0.532l0.42-1.611c0.435,0.252,1.191,0.518,1.989,0.518
		c1.008,0,1.779-0.546,1.779-1.807v-0.448h-0.028c-0.406,0.574-1.064,0.896-1.849,0.896c-1.695,0-2.899-1.373-2.899-3.348
		c0-2.199,1.429-3.6,3.109-3.6c0.938,0,1.527,0.406,1.877,0.967h0.028l0.07-0.812H217.724z M215.539,399.879
		c0-0.14-0.014-0.28-0.042-0.393c-0.154-0.56-0.561-0.938-1.149-0.938c-0.77,0-1.4,0.701-1.4,1.947c0,1.022,0.504,1.821,1.4,1.821
		c0.546,0,0.98-0.364,1.121-0.868c0.056-0.154,0.07-0.378,0.07-0.561V399.879z"/>
	<path fill="#E30613" d="M221.011,401.195c0.07,0.883,0.938,1.303,1.933,1.303c0.729,0,1.317-0.098,1.891-0.28l0.28,1.443
		c-0.701,0.28-1.555,0.42-2.479,0.42c-2.325,0-3.656-1.345-3.656-3.488c0-1.737,1.079-3.656,3.46-3.656
		c2.213,0,3.053,1.723,3.053,3.418c0,0.364-0.042,0.687-0.07,0.84H221.011z M223.519,399.739c0-0.519-0.224-1.387-1.205-1.387
		c-0.896,0-1.261,0.812-1.316,1.387H223.519z"/>
	<path fill="#E30613" d="M229.733,401.742c0.574,0.294,1.457,0.588,2.367,0.588c0.98,0,1.499-0.406,1.499-1.022
		c0-0.588-0.448-0.925-1.583-1.331c-1.569-0.546-2.591-1.415-2.591-2.787c0-1.611,1.345-2.844,3.572-2.844
		c1.064,0,1.849,0.224,2.409,0.476l-0.476,1.723c-0.378-0.182-1.051-0.448-1.975-0.448s-1.373,0.42-1.373,0.911
		c0,0.602,0.532,0.868,1.751,1.331c1.667,0.616,2.451,1.485,2.451,2.815c0,1.583-1.219,2.928-3.81,2.928
		c-1.079,0-2.143-0.28-2.675-0.574L229.733,401.742z"/>
	<path fill="#E30613" d="M239.352,395.186c0,0.588-0.448,1.065-1.149,1.065c-0.672,0-1.12-0.477-1.106-1.065
		c-0.014-0.616,0.435-1.079,1.121-1.079C238.904,394.107,239.338,394.57,239.352,395.186z M237.153,403.941v-6.85h2.129v6.85
		H237.153z"/>
	<path fill="#E30613" d="M240.989,399.276c0-0.854-0.028-1.583-0.056-2.185h1.793l0.098,0.924h0.042
		c0.294-0.434,0.896-1.079,2.073-1.079c0.882,0,1.583,0.448,1.877,1.163h0.028c0.252-0.35,0.561-0.63,0.883-0.826
		c0.378-0.224,0.798-0.336,1.303-0.336c1.316,0,2.311,0.925,2.311,2.97v4.034h-2.073v-3.726c0-0.995-0.322-1.569-1.008-1.569
		c-0.49,0-0.841,0.336-0.98,0.743c-0.056,0.154-0.084,0.378-0.084,0.546v4.006h-2.073v-3.838c0-0.869-0.308-1.457-0.98-1.457
		c-0.546,0-0.869,0.42-0.995,0.771c-0.07,0.168-0.084,0.364-0.084,0.532v3.992h-2.073V399.276z"/>
	<path fill="#E30613" d="M259.486,401.742c0,0.896,0.028,1.625,0.056,2.199h-1.849l-0.098-0.966h-0.042
		c-0.266,0.42-0.911,1.121-2.143,1.121c-1.387,0-2.409-0.869-2.409-2.984v-4.02h2.143v3.684c0,0.994,0.322,1.597,1.064,1.597
		c0.588,0,0.924-0.406,1.064-0.742c0.056-0.126,0.07-0.294,0.07-0.462v-4.076h2.143V401.742z"/>
	<path fill="#E30613" d="M261.191,393.996h2.129v9.945h-2.129V393.996z"/>
	<path fill="#E30613" d="M268.935,403.941l-0.126-0.687h-0.042c-0.448,0.546-1.149,0.841-1.961,0.841
		c-1.387,0-2.213-1.009-2.213-2.102c0-1.779,1.597-2.633,4.02-2.619v-0.098c0-0.364-0.196-0.882-1.247-0.882
		c-0.7,0-1.443,0.238-1.891,0.518l-0.392-1.373c0.476-0.266,1.415-0.603,2.662-0.603c2.283,0,3.011,1.345,3.011,2.956v2.381
		c0,0.659,0.028,1.289,0.098,1.667H268.935z M268.683,400.705c-1.121-0.014-1.989,0.252-1.989,1.079c0,0.546,0.364,0.812,0.84,0.812
		c0.532,0,0.967-0.35,1.107-0.785c0.028-0.112,0.042-0.238,0.042-0.364V400.705z"/>
	<path fill="#E30613" d="M274.703,395.13v1.961h1.527v1.569h-1.527v2.479c0,0.826,0.196,1.205,0.84,1.205
		c0.266,0,0.476-0.028,0.63-0.056l0.014,1.611c-0.28,0.112-0.785,0.182-1.387,0.182c-0.687,0-1.261-0.238-1.597-0.588
		c-0.392-0.406-0.588-1.064-0.588-2.031v-2.801h-0.91v-1.569h0.91v-1.485L274.703,395.13z"/>
	<path fill="#E30613" d="M279.658,395.186c0,0.588-0.448,1.065-1.148,1.065c-0.673,0-1.121-0.477-1.107-1.065
		c-0.014-0.616,0.434-1.079,1.121-1.079S279.644,394.57,279.658,395.186z M277.459,403.941v-6.85h2.129v6.85H277.459z"/>
	<path fill="#E30613" d="M288.061,400.439c0,2.507-1.779,3.656-3.614,3.656c-2.003,0-3.544-1.317-3.544-3.53
		c0-2.213,1.457-3.628,3.656-3.628C286.66,396.937,288.061,398.38,288.061,400.439z M283.102,400.509c0,1.176,0.49,2.059,1.4,2.059
		c0.827,0,1.359-0.827,1.359-2.059c0-1.023-0.392-2.059-1.359-2.059C283.48,398.45,283.102,399.5,283.102,400.509z"/>
	<path fill="#E30613" d="M289.373,399.276c0-0.854-0.028-1.583-0.056-2.185h1.849l0.098,0.938h0.042
		c0.28-0.434,0.98-1.093,2.115-1.093c1.4,0,2.451,0.925,2.451,2.942v4.062h-2.129v-3.796c0-0.883-0.308-1.485-1.078-1.485
		c-0.588,0-0.939,0.406-1.079,0.798c-0.056,0.126-0.084,0.336-0.084,0.532v3.95h-2.129V399.276z"/>
	<path fill="#E30613" d="M308.361,403.507c-0.658,0.224-1.905,0.532-3.151,0.532c-1.724,0-2.97-0.435-3.839-1.275
		c-0.867-0.812-1.344-2.045-1.33-3.432c0.014-3.138,2.297-4.931,5.393-4.931c1.219,0,2.157,0.238,2.62,0.462l-0.448,1.708
		c-0.519-0.224-1.163-0.406-2.199-0.406c-1.779,0-3.124,1.009-3.124,3.054c0,1.947,1.219,3.096,2.97,3.096
		c0.49,0,0.883-0.056,1.051-0.14v-1.975h-1.457v-1.667h3.516V403.507z"/>
	<path fill="#E30613" d="M309.995,393.996h2.129v9.945h-2.129V393.996z"/>
	<path fill="#E30613" d="M317.739,403.941l-0.127-0.687h-0.042c-0.448,0.546-1.148,0.841-1.961,0.841
		c-1.387,0-2.213-1.009-2.213-2.102c0-1.779,1.597-2.633,4.021-2.619v-0.098c0-0.364-0.196-0.882-1.247-0.882
		c-0.7,0-1.442,0.238-1.891,0.518l-0.393-1.373c0.477-0.266,1.415-0.603,2.661-0.603c2.283,0,3.012,1.345,3.012,2.956v2.381
		c0,0.659,0.028,1.289,0.099,1.667H317.739z M317.486,400.705c-1.12-0.014-1.988,0.252-1.988,1.079c0,0.546,0.363,0.812,0.84,0.812
		c0.532,0,0.967-0.35,1.106-0.785c0.028-0.112,0.042-0.238,0.042-0.364V400.705z"/>
	<path fill="#E30613" d="M321.223,402.078c0.392,0.238,1.204,0.518,1.835,0.518c0.644,0,0.91-0.224,0.91-0.574
		s-0.21-0.519-1.009-0.785c-1.414-0.476-1.961-1.247-1.947-2.059c0-1.274,1.093-2.241,2.788-2.241c0.798,0,1.513,0.182,1.933,0.392
		l-0.378,1.471c-0.309-0.168-0.896-0.393-1.484-0.393c-0.519,0-0.812,0.21-0.812,0.561c0,0.322,0.266,0.49,1.106,0.784
		c1.303,0.448,1.849,1.107,1.863,2.115c0,1.275-1.009,2.213-2.97,2.213c-0.896,0-1.695-0.196-2.214-0.477L321.223,402.078z"/>
	<path fill="#E30613" d="M327.299,402.078c0.392,0.238,1.204,0.518,1.835,0.518c0.644,0,0.91-0.224,0.91-0.574
		s-0.21-0.519-1.009-0.785c-1.414-0.476-1.961-1.247-1.947-2.059c0-1.274,1.093-2.241,2.788-2.241c0.798,0,1.513,0.182,1.933,0.392
		l-0.378,1.471c-0.309-0.168-0.896-0.393-1.484-0.393c-0.519,0-0.812,0.21-0.812,0.561c0,0.322,0.266,0.49,1.106,0.784
		c1.303,0.448,1.849,1.107,1.863,2.115c0,1.275-1.009,2.213-2.97,2.213c-0.896,0-1.695-0.196-2.214-0.477L327.299,402.078z"/>
	<path fill="#E30613" d="M335.027,401.195c0.07,0.883,0.938,1.303,1.934,1.303c0.729,0,1.316-0.098,1.891-0.28l0.28,1.443
		c-0.7,0.28-1.555,0.42-2.479,0.42c-2.325,0-3.656-1.345-3.656-3.488c0-1.737,1.079-3.656,3.46-3.656
		c2.214,0,3.054,1.723,3.054,3.418c0,0.364-0.042,0.687-0.07,0.84H335.027z M337.535,399.739c0-0.519-0.225-1.387-1.205-1.387
		c-0.896,0-1.261,0.812-1.316,1.387H337.535z"/>
	<path fill="#E30613" d="M340.767,402.078c0.392,0.238,1.204,0.518,1.835,0.518c0.644,0,0.91-0.224,0.91-0.574
		s-0.21-0.519-1.009-0.785c-1.414-0.476-1.961-1.247-1.947-2.059c0-1.274,1.093-2.241,2.788-2.241c0.798,0,1.513,0.182,1.933,0.392
		l-0.378,1.471c-0.309-0.168-0.896-0.393-1.484-0.393c-0.519,0-0.812,0.21-0.812,0.561c0,0.322,0.266,0.49,1.106,0.784
		c1.303,0.448,1.849,1.107,1.863,2.115c0,1.275-1.009,2.213-2.97,2.213c-0.896,0-1.695-0.196-2.214-0.477L340.767,402.078z"/>
</g>
<g>
	<path fill="#E30613" d="M393.273,445.024h-0.097l-5.952,2.833l-1.2-5.473l8.257-3.841h6.049v31.202h-7.057V445.024z"/>
</g>
<g>
	<g>
		<path fill="#E30613" d="M375.452,294.307c-2.863-0.26-5.294-2.022-6.487-4.497h6.487v-6.221h-6.796
			c1.04-2.853,3.657-4.945,6.796-5.229v-6.096c-7.441,0.38-13.358,6.534-13.358,14.07s5.917,13.69,13.358,14.071V294.307z"/>
		<path fill="#E30613" d="M378.196,272.39v6.188c3.45,0.893,5.997,4.026,5.997,7.755c0,3.729-2.547,6.863-5.997,7.755v6.189
			c6.828-0.977,12.077-6.847,12.077-13.944S385.024,273.367,378.196,272.39z"/>
	</g>
	<g>
		<path fill="#E30613" d="M404.18,272.39v6.188c-3.45,0.893-5.997,4.026-5.997,7.755c0,3.729,2.547,6.863,5.997,7.755v6.189
			c-6.828-0.977-12.077-6.847-12.077-13.944S397.352,273.367,404.18,272.39z"/>
	</g>
</g>
<g>
	<path fill="#E30613" d="M341.859,314.189l-0.672,2.423h-2.213l2.885-9.441h2.803l2.927,9.441h-2.297l-0.729-2.423H341.859z
		 M344.256,312.592l-0.589-2.003c-0.168-0.56-0.336-1.261-0.476-1.821h-0.029c-0.14,0.56-0.279,1.275-0.434,1.821l-0.561,2.003
		H344.256z"/>
	<path fill="#E30613" d="M353.72,316.444c-0.378,0.168-1.093,0.308-1.905,0.308c-2.213,0-3.627-1.345-3.627-3.501
		c0-2.003,1.372-3.642,3.922-3.642c0.561,0,1.176,0.098,1.625,0.266l-0.337,1.583c-0.252-0.112-0.63-0.21-1.19-0.21
		c-1.121,0-1.85,0.798-1.835,1.919c0,1.261,0.841,1.919,1.877,1.919c0.505,0,0.896-0.084,1.219-0.21L353.72,316.444z"/>
	<path fill="#E30613" d="M361.351,314.413c0,0.896,0.028,1.625,0.056,2.199h-1.849l-0.099-0.967h-0.041
		c-0.267,0.421-0.911,1.121-2.144,1.121c-1.387,0-2.409-0.869-2.409-2.984v-4.02h2.143v3.684c0,0.994,0.322,1.597,1.064,1.597
		c0.589,0,0.925-0.406,1.064-0.742c0.057-0.126,0.07-0.294,0.07-0.462v-4.076h2.144V314.413z"/>
	<path fill="#E30613" d="M365.254,307.857c0,0.588-0.447,1.065-1.148,1.065c-0.672,0-1.12-0.477-1.106-1.065
		c-0.014-0.616,0.435-1.079,1.12-1.079C364.807,306.779,365.24,307.241,365.254,307.857z M363.055,316.612v-6.85h2.129v6.85H363.055
		z"/>
	<path fill="#E30613" d="M369.272,307.802v1.961h1.526v1.569h-1.526v2.479c0,0.827,0.196,1.205,0.841,1.205
		c0.266,0,0.476-0.028,0.63-0.056l0.015,1.611c-0.281,0.112-0.785,0.182-1.387,0.182c-0.688,0-1.262-0.237-1.598-0.588
		c-0.393-0.406-0.588-1.064-0.588-2.031v-2.801h-0.91v-1.569h0.91v-1.485L369.272,307.802z"/>
	<path fill="#E30613" d="M373.695,309.763l1.022,3.362c0.112,0.406,0.253,0.911,0.337,1.274h0.041
		c0.099-0.364,0.211-0.882,0.309-1.274l0.84-3.362h2.284l-1.597,4.51c-0.98,2.717-1.639,3.81-2.41,4.497
		c-0.742,0.645-1.526,0.868-2.059,0.938l-0.448-1.807c0.267-0.042,0.603-0.168,0.925-0.364c0.322-0.168,0.672-0.505,0.882-0.854
		c0.07-0.099,0.112-0.21,0.112-0.309c0-0.07-0.014-0.182-0.098-0.35l-2.508-6.262H373.695z"/>
	<path fill="#E30613" d="M386.143,316.612l-0.126-0.687h-0.042c-0.448,0.547-1.148,0.841-1.961,0.841
		c-1.387,0-2.213-1.009-2.213-2.102c0-1.779,1.596-2.633,4.02-2.619v-0.098c0-0.364-0.195-0.882-1.246-0.882
		c-0.701,0-1.443,0.238-1.892,0.518l-0.392-1.373c0.476-0.266,1.414-0.603,2.661-0.603c2.283,0,3.011,1.345,3.011,2.956v2.381
		c0,0.658,0.029,1.289,0.099,1.667H386.143z M385.891,313.376c-1.121-0.014-1.989,0.252-1.989,1.079
		c0,0.546,0.364,0.812,0.841,0.812c0.531,0,0.967-0.35,1.106-0.784c0.028-0.112,0.042-0.238,0.042-0.364V313.376z"/>
	<path fill="#E30613" d="M389.641,311.948c0-0.854-0.027-1.583-0.057-2.185h1.85l0.098,0.938h0.043
		c0.279-0.434,0.98-1.093,2.115-1.093c1.4,0,2.451,0.925,2.451,2.942v4.062h-2.13v-3.796c0-0.883-0.308-1.485-1.078-1.485
		c-0.589,0-0.938,0.406-1.079,0.798c-0.056,0.126-0.084,0.336-0.084,0.532v3.95h-2.129V311.948z"/>
	<path fill="#E30613" d="M404.484,306.667v7.9c0,0.77,0.027,1.583,0.057,2.045h-1.892l-0.099-1.009h-0.027
		c-0.435,0.771-1.261,1.163-2.144,1.163c-1.624,0-2.927-1.387-2.927-3.516c-0.015-2.311,1.428-3.642,3.066-3.642
		c0.841,0,1.5,0.294,1.808,0.771h0.028v-3.712H404.484z M402.355,312.662c0-0.112-0.014-0.266-0.028-0.378
		c-0.126-0.575-0.589-1.051-1.247-1.051c-0.967,0-1.471,0.869-1.471,1.947c0,1.163,0.574,1.891,1.457,1.891
		c0.616,0,1.106-0.42,1.232-1.022c0.043-0.154,0.057-0.308,0.057-0.49V312.662z"/>
	<path fill="#E30613" d="M329.936,333.146c-0.393,0.196-1.275,0.406-2.424,0.406c-3.264,0-4.945-2.03-4.945-4.72
		c0-3.222,2.298-5.015,5.155-5.015c1.106,0,1.947,0.224,2.325,0.42l-0.434,1.694c-0.435-0.182-1.037-0.35-1.793-0.35
		c-1.695,0-3.012,1.022-3.012,3.123c0,1.892,1.12,3.082,3.025,3.082c0.645,0,1.358-0.14,1.779-0.308L329.936,333.146z"/>
	<path fill="#E30613" d="M337.76,329.911c0,2.508-1.778,3.656-3.613,3.656c-2.004,0-3.544-1.317-3.544-3.53s1.456-3.628,3.655-3.628
		C336.359,326.409,337.76,327.853,337.76,329.911z M332.802,329.981c0,1.177,0.49,2.059,1.4,2.059c0.827,0,1.358-0.826,1.358-2.059
		c0-1.022-0.392-2.06-1.358-2.06C333.18,327.922,332.802,328.973,332.802,329.981z"/>
	<path fill="#E30613" d="M339.072,328.749c0-0.854-0.027-1.583-0.056-2.186h1.849l0.099,0.938h0.042
		c0.28-0.435,0.98-1.093,2.115-1.093c1.4,0,2.451,0.925,2.451,2.941v4.062h-2.129v-3.796c0-0.883-0.309-1.485-1.079-1.485
		c-0.588,0-0.938,0.406-1.078,0.799c-0.056,0.126-0.085,0.336-0.085,0.532v3.95h-2.129V328.749z"/>
	<path fill="#E30613" d="M349.574,324.603v1.961h1.527v1.568h-1.527v2.479c0,0.827,0.195,1.205,0.84,1.205
		c0.267,0,0.477-0.028,0.631-0.057l0.014,1.611c-0.279,0.112-0.784,0.182-1.387,0.182c-0.686,0-1.26-0.237-1.597-0.588
		c-0.392-0.406-0.589-1.064-0.589-2.031v-2.802h-0.91v-1.568h0.91v-1.485L349.574,324.603z"/>
	<path fill="#E30613" d="M352.33,328.818c0-1.009-0.027-1.667-0.056-2.255h1.835l0.07,1.261h0.056
		c0.351-0.995,1.19-1.415,1.849-1.415c0.197,0,0.295,0,0.449,0.028v2.003c-0.154-0.028-0.336-0.056-0.574-0.056
		c-0.785,0-1.317,0.42-1.457,1.078c-0.028,0.14-0.043,0.309-0.043,0.477v3.474h-2.129V328.818z"/>
	<path fill="#E30613" d="M361.391,333.413l-0.126-0.687h-0.042c-0.448,0.547-1.148,0.841-1.961,0.841
		c-1.387,0-2.213-1.009-2.213-2.102c0-1.778,1.596-2.633,4.02-2.619v-0.098c0-0.364-0.195-0.883-1.246-0.883
		c-0.701,0-1.443,0.238-1.892,0.519l-0.392-1.373c0.476-0.267,1.414-0.603,2.661-0.603c2.283,0,3.011,1.345,3.011,2.956v2.381
		c0,0.658,0.029,1.289,0.099,1.667H361.391z M361.139,330.178c-1.121-0.015-1.989,0.252-1.989,1.078
		c0,0.546,0.364,0.812,0.841,0.812c0.531,0,0.967-0.351,1.106-0.784c0.028-0.112,0.042-0.238,0.042-0.364V330.178z"/>
	<path fill="#E30613" d="M364.875,331.55c0.392,0.238,1.204,0.519,1.834,0.519c0.645,0,0.911-0.224,0.911-0.574
		s-0.21-0.519-1.009-0.784c-1.414-0.477-1.961-1.247-1.947-2.06c0-1.274,1.094-2.241,2.788-2.241c0.798,0,1.513,0.183,1.933,0.393
		l-0.378,1.471c-0.308-0.168-0.896-0.393-1.485-0.393c-0.518,0-0.812,0.21-0.812,0.561c0,0.322,0.267,0.49,1.107,0.784
		c1.303,0.448,1.849,1.106,1.863,2.115c0,1.274-1.009,2.213-2.971,2.213c-0.896,0-1.694-0.195-2.213-0.476L364.875,331.55z"/>
	<path fill="#E30613" d="M373.346,324.603v1.961h1.527v1.568h-1.527v2.479c0,0.827,0.195,1.205,0.84,1.205
		c0.267,0,0.477-0.028,0.631-0.057l0.014,1.611c-0.279,0.112-0.784,0.182-1.387,0.182c-0.686,0-1.26-0.237-1.597-0.588
		c-0.392-0.406-0.589-1.064-0.589-2.031v-2.802h-0.91v-1.568h0.91v-1.485L373.346,324.603z"/>
	<path fill="#E30613" d="M379,323.972h2.144v7.648h3.754v1.793H379V323.972z"/>
	<path fill="#E30613" d="M392.725,329.911c0,2.508-1.779,3.656-3.614,3.656c-2.003,0-3.544-1.317-3.544-3.53
		s1.457-3.628,3.656-3.628C391.323,326.409,392.725,327.853,392.725,329.911z M387.766,329.981c0,1.177,0.49,2.059,1.4,2.059
		c0.826,0,1.359-0.826,1.359-2.059c0-1.022-0.393-2.06-1.359-2.06C388.144,327.922,387.766,328.973,387.766,329.981z"/>
	<path fill="#E30613" d="M394.022,331.55c0.393,0.238,1.204,0.519,1.835,0.519c0.645,0,0.91-0.224,0.91-0.574
		s-0.209-0.519-1.008-0.784c-1.415-0.477-1.961-1.247-1.947-2.06c0-1.274,1.093-2.241,2.787-2.241c0.799,0,1.514,0.183,1.934,0.393
		l-0.379,1.471c-0.308-0.168-0.896-0.393-1.484-0.393c-0.518,0-0.812,0.21-0.812,0.561c0,0.322,0.266,0.49,1.107,0.784
		c1.303,0.448,1.848,1.106,1.862,2.115c0,1.274-1.009,2.213-2.97,2.213c-0.896,0-1.695-0.195-2.213-0.476L394.022,331.55z"/>
	<path fill="#E30613" d="M400.098,331.55c0.393,0.238,1.205,0.519,1.836,0.519c0.645,0,0.91-0.224,0.91-0.574
		s-0.21-0.519-1.009-0.784c-1.415-0.477-1.961-1.247-1.946-2.06c0-1.274,1.092-2.241,2.787-2.241c0.799,0,1.513,0.183,1.934,0.393
		l-0.379,1.471c-0.309-0.168-0.896-0.393-1.484-0.393c-0.519,0-0.812,0.21-0.812,0.561c0,0.322,0.266,0.49,1.106,0.784
		c1.303,0.448,1.849,1.106,1.862,2.115c0,1.274-1.008,2.213-2.969,2.213c-0.896,0-1.695-0.195-2.213-0.476L400.098,331.55z"/>
	<path fill="#E30613" d="M357.078,340.533c-0.799,1.289-1.415,3.166-1.415,5.674c0,2.465,0.63,4.328,1.415,5.631h-1.484
		c-0.757-1.079-1.598-2.941-1.598-5.646c0.014-2.717,0.841-4.566,1.598-5.659H357.078z"/>
	<path fill="#E30613" d="M358.477,340.771h2.143v7.648h3.754v1.793h-5.896V340.771z"/>
	<path fill="#E30613" d="M367.072,347.468c0.07,0.882,0.939,1.303,1.934,1.303c0.729,0,1.316-0.099,1.891-0.28l0.281,1.442
		c-0.701,0.28-1.556,0.42-2.48,0.42c-2.324,0-3.655-1.345-3.655-3.487c0-1.737,1.079-3.656,3.46-3.656
		c2.213,0,3.053,1.723,3.053,3.418c0,0.364-0.041,0.687-0.069,0.841H367.072z M369.58,346.011c0-0.519-0.225-1.387-1.205-1.387
		c-0.896,0-1.26,0.812-1.316,1.387H369.58z"/>
	<path fill="#E30613" d="M374.325,343.363l0.925,3.18c0.168,0.574,0.293,1.12,0.392,1.667h0.042
		c0.112-0.561,0.225-1.079,0.379-1.667l0.882-3.18h2.241l-2.549,6.85h-2.129l-2.494-6.85H374.325z"/>
	<path fill="#E30613" d="M381.591,347.468c0.07,0.882,0.938,1.303,1.933,1.303c0.729,0,1.317-0.099,1.892-0.28l0.28,1.442
		c-0.701,0.28-1.555,0.42-2.479,0.42c-2.325,0-3.655-1.345-3.655-3.487c0-1.737,1.078-3.656,3.459-3.656
		c2.213,0,3.054,1.723,3.054,3.418c0,0.364-0.042,0.687-0.069,0.841H381.591z M384.098,346.011c0-0.519-0.224-1.387-1.204-1.387
		c-0.896,0-1.261,0.812-1.316,1.387H384.098z"/>
	<path fill="#E30613" d="M387.344,340.268h2.129v9.945h-2.129V340.268z"/>
	<path fill="#E30613" d="M396.474,342.999h-0.028l-1.736,0.826l-0.351-1.597l2.409-1.12h1.766v9.104h-2.06V342.999z"/>
	<path fill="#E30613" d="M401.428,351.838c0.771-1.289,1.415-3.18,1.415-5.659s-0.63-4.343-1.415-5.646h1.485
		c0.742,1.079,1.597,2.914,1.597,5.646c-0.014,2.731-0.854,4.566-1.597,5.659H401.428z"/>
</g>
<g>
	<path fill="#E30613" d="M97.658,282.629l0.546,2.801c0.14,0.714,0.28,1.471,0.392,2.255h0.028c0.14-0.785,0.336-1.569,0.504-2.241
		l0.729-2.815h1.681l0.686,2.731c0.182,0.771,0.364,1.541,0.504,2.325h0.028c0.098-0.785,0.238-1.555,0.393-2.339l0.588-2.717h2.087
		l-2.101,6.85h-2.003l-0.644-2.409c-0.168-0.672-0.294-1.289-0.434-2.129h-0.028c-0.126,0.854-0.266,1.485-0.448,2.129l-0.687,2.409
		h-2.003l-1.989-6.85H97.658z"/>
	<path fill="#E30613" d="M108.55,282.629l0.546,2.801c0.14,0.714,0.28,1.471,0.392,2.255h0.028c0.14-0.785,0.336-1.569,0.504-2.241
		l0.729-2.815h1.681l0.686,2.731c0.182,0.771,0.364,1.541,0.504,2.325h0.028c0.098-0.785,0.238-1.555,0.393-2.339l0.588-2.717h2.087
		l-2.101,6.85h-2.003l-0.645-2.409c-0.168-0.672-0.294-1.289-0.434-2.129h-0.028c-0.126,0.854-0.266,1.485-0.448,2.129l-0.686,2.409
		h-2.003l-1.989-6.85H108.55z"/>
	<path fill="#E30613" d="M119.441,282.629l0.546,2.801c0.14,0.714,0.28,1.471,0.392,2.255h0.028c0.14-0.785,0.336-1.569,0.504-2.241
		l0.729-2.815h1.681l0.686,2.731c0.182,0.771,0.364,1.541,0.504,2.325h0.028c0.098-0.785,0.238-1.555,0.393-2.339l0.588-2.717h2.087
		l-2.101,6.85h-2.003l-0.645-2.409c-0.168-0.672-0.294-1.289-0.434-2.129h-0.028c-0.126,0.854-0.266,1.485-0.448,2.129l-0.686,2.409
		h-2.003l-1.989-6.85H119.441z"/>
	<path fill="#E30613" d="M127.771,288.344c0-0.756,0.519-1.303,1.261-1.303c0.743,0,1.247,0.533,1.247,1.303
		c0,0.743-0.504,1.289-1.26,1.289C128.289,289.633,127.771,289.086,127.771,288.344z"/>
	<path fill="#E30613" d="M133.764,280.724c0,0.588-0.448,1.065-1.149,1.065c-0.672,0-1.12-0.477-1.106-1.065
		c-0.014-0.616,0.435-1.079,1.121-1.079C133.316,279.645,133.75,280.107,133.764,280.724z M131.565,289.479v-6.85h2.129v6.85
		H131.565z"/>
	<path fill="#E30613" d="M135.401,284.814c0-0.854-0.028-1.583-0.056-2.185h1.849l0.098,0.938h0.042
		c0.28-0.434,0.98-1.093,2.115-1.093c1.4,0,2.451,0.925,2.451,2.942v4.062h-2.129v-3.796c0-0.883-0.308-1.485-1.079-1.485
		c-0.588,0-0.938,0.406-1.078,0.798c-0.056,0.126-0.084,0.336-0.084,0.532v3.95h-2.129V284.814z"/>
	<path fill="#E30613" d="M148.746,289.311c-0.378,0.168-1.092,0.308-1.905,0.308c-2.213,0-3.628-1.345-3.628-3.502
		c0-2.003,1.373-3.642,3.922-3.642c0.561,0,1.177,0.098,1.625,0.266l-0.336,1.583c-0.252-0.112-0.63-0.21-1.19-0.21
		c-1.121,0-1.849,0.798-1.835,1.919c0,1.261,0.84,1.919,1.877,1.919c0.504,0,0.896-0.084,1.219-0.21L148.746,289.311z"/>
	<path fill="#E30613" d="M149.919,279.533h2.129v9.945h-2.129V279.533z"/>
	<path fill="#E30613" d="M160.227,287.279c0,0.896,0.028,1.625,0.056,2.199h-1.849l-0.098-0.966h-0.042
		c-0.266,0.42-0.911,1.121-2.143,1.121c-1.387,0-2.409-0.869-2.409-2.984v-4.02h2.143v3.684c0,0.994,0.322,1.597,1.064,1.597
		c0.588,0,0.924-0.406,1.064-0.742c0.056-0.126,0.07-0.294,0.07-0.462v-4.076h2.143V287.279z"/>
	<path fill="#E30613" d="M161.917,287.616c0.393,0.238,1.205,0.518,1.835,0.518c0.645,0,0.911-0.224,0.911-0.574
		s-0.21-0.519-1.008-0.785c-1.415-0.476-1.961-1.247-1.947-2.059c0-1.274,1.093-2.241,2.788-2.241c0.798,0,1.513,0.182,1.933,0.392
		l-0.378,1.471c-0.308-0.168-0.896-0.393-1.485-0.393c-0.518,0-0.812,0.21-0.812,0.561c0,0.322,0.266,0.49,1.107,0.784
		c1.303,0.448,1.849,1.107,1.863,2.115c0,1.275-1.008,2.213-2.97,2.213c-0.896,0-1.695-0.196-2.213-0.477L161.917,287.616z"/>
	<path fill="#E30613" d="M170.206,280.724c0,0.588-0.448,1.065-1.148,1.065c-0.673,0-1.121-0.477-1.107-1.065
		c-0.014-0.616,0.434-1.079,1.121-1.079S170.192,280.107,170.206,280.724z M168.007,289.479v-6.85h2.129v6.85H168.007z"/>
	<path fill="#E30613" d="M173.426,282.629l0.924,3.18c0.168,0.574,0.294,1.121,0.392,1.667h0.042
		c0.112-0.561,0.224-1.079,0.378-1.667l0.882-3.18h2.241l-2.549,6.85h-2.129l-2.494-6.85H173.426z"/>
	<path fill="#E30613" d="M180.691,286.733c0.07,0.883,0.938,1.303,1.933,1.303c0.729,0,1.317-0.098,1.891-0.28l0.28,1.443
		c-0.701,0.28-1.555,0.42-2.479,0.42c-2.325,0-3.656-1.345-3.656-3.488c0-1.737,1.079-3.656,3.459-3.656
		c2.213,0,3.054,1.723,3.054,3.418c0,0.364-0.042,0.687-0.07,0.84H180.691z M183.199,285.276c0-0.519-0.224-1.387-1.205-1.387
		c-0.896,0-1.261,0.812-1.316,1.387H183.199z"/>
	<path fill="#E30613" d="M193.084,279.533v7.9c0,0.77,0.028,1.583,0.056,2.045h-1.891l-0.098-1.008h-0.028
		c-0.435,0.77-1.261,1.163-2.144,1.163c-1.625,0-2.927-1.387-2.927-3.516c-0.014-2.311,1.429-3.642,3.067-3.642
		c0.841,0,1.499,0.294,1.807,0.771h0.028v-3.712H193.084z M190.955,285.528c0-0.112-0.014-0.266-0.028-0.378
		c-0.126-0.575-0.588-1.051-1.247-1.051c-0.967,0-1.471,0.869-1.471,1.947c0,1.163,0.574,1.891,1.457,1.891
		c0.616,0,1.106-0.42,1.233-1.022c0.042-0.154,0.056-0.308,0.056-0.49V285.528z"/>
	<path fill="#E30613" d="M196.427,286.733c0.07,0.883,0.938,1.303,1.933,1.303c0.729,0,1.317-0.098,1.891-0.28l0.28,1.443
		c-0.701,0.28-1.555,0.42-2.479,0.42c-2.325,0-3.656-1.345-3.656-3.488c0-1.737,1.079-3.656,3.46-3.656
		c2.213,0,3.053,1.723,3.053,3.418c0,0.364-0.042,0.687-0.07,0.84H196.427z M198.935,285.276c0-0.519-0.224-1.387-1.205-1.387
		c-0.896,0-1.261,0.812-1.316,1.387H198.935z"/>
	<path fill="#E30613" d="M202.167,287.616c0.392,0.238,1.205,0.518,1.835,0.518c0.645,0,0.911-0.224,0.911-0.574
		s-0.21-0.519-1.009-0.785c-1.415-0.476-1.961-1.247-1.947-2.059c0-1.274,1.093-2.241,2.788-2.241c0.798,0,1.513,0.182,1.933,0.392
		l-0.378,1.471c-0.308-0.168-0.896-0.393-1.485-0.393c-0.518,0-0.812,0.21-0.812,0.561c0,0.322,0.266,0.49,1.107,0.784
		c1.303,0.448,1.849,1.107,1.863,2.115c0,1.275-1.008,2.213-2.97,2.213c-0.896,0-1.695-0.196-2.213-0.477L202.167,287.616z"/>
	<path fill="#E30613" d="M210.456,280.724c0,0.588-0.448,1.065-1.149,1.065c-0.672,0-1.12-0.477-1.106-1.065
		c-0.014-0.616,0.435-1.079,1.121-1.079C210.007,279.645,210.441,280.107,210.456,280.724z M208.256,289.479v-6.85h2.129v6.85
		H208.256z"/>
	<path fill="#E30613" d="M218.634,282.629c-0.028,0.434-0.056,1.008-0.056,2.031v3.824c0,1.317-0.266,2.396-1.037,3.082
		c-0.756,0.645-1.779,0.841-2.787,0.841c-0.896,0-1.849-0.182-2.465-0.532l0.42-1.611c0.434,0.252,1.191,0.518,1.989,0.518
		c1.008,0,1.779-0.546,1.779-1.807v-0.448h-0.028c-0.406,0.574-1.065,0.896-1.849,0.896c-1.695,0-2.899-1.373-2.899-3.348
		c0-2.199,1.429-3.6,3.109-3.6c0.938,0,1.527,0.406,1.877,0.967h0.028l0.07-0.812H218.634z M216.449,285.417
		c0-0.14-0.014-0.28-0.042-0.393c-0.154-0.56-0.561-0.938-1.149-0.938c-0.771,0-1.4,0.701-1.4,1.947c0,1.022,0.504,1.821,1.4,1.821
		c0.546,0,0.98-0.364,1.121-0.868c0.056-0.154,0.07-0.378,0.07-0.561V285.417z"/>
	<path fill="#E30613" d="M220.282,284.814c0-0.854-0.028-1.583-0.056-2.185h1.849l0.098,0.938h0.042
		c0.28-0.434,0.98-1.093,2.115-1.093c1.4,0,2.451,0.925,2.451,2.942v4.062h-2.129v-3.796c0-0.883-0.308-1.485-1.078-1.485
		c-0.588,0-0.939,0.406-1.079,0.798c-0.056,0.126-0.084,0.336-0.084,0.532v3.95h-2.129V284.814z"/>
	<path fill="#E30613" d="M230.784,280.668v1.961h1.527v1.569h-1.527v2.479c0,0.826,0.196,1.205,0.84,1.205
		c0.266,0,0.476-0.028,0.63-0.056l0.014,1.611c-0.28,0.112-0.785,0.182-1.387,0.182c-0.687,0-1.261-0.238-1.597-0.588
		c-0.392-0.406-0.588-1.064-0.588-2.031v-2.801h-0.91v-1.569h0.91v-1.485L230.784,280.668z"/>
	<path fill="#E30613" d="M240.236,285.977c0,2.507-1.779,3.656-3.614,3.656c-2.003,0-3.544-1.317-3.544-3.53
		c0-2.213,1.457-3.628,3.656-3.628C238.835,282.475,240.236,283.917,240.236,285.977z M235.277,286.047
		c0,1.176,0.49,2.059,1.4,2.059c0.827,0,1.359-0.827,1.359-2.059c0-1.023-0.392-2.059-1.359-2.059
		C235.655,283.988,235.277,285.038,235.277,286.047z"/>
	<path fill="#E30613" d="M248.356,285.977c0,2.507-1.779,3.656-3.614,3.656c-2.003,0-3.544-1.317-3.544-3.53
		c0-2.213,1.457-3.628,3.656-3.628C246.955,282.475,248.356,283.917,248.356,285.977z M243.397,286.047
		c0,1.176,0.49,2.059,1.4,2.059c0.827,0,1.359-0.827,1.359-2.059c0-1.023-0.392-2.059-1.359-2.059
		C243.775,283.988,243.397,285.038,243.397,286.047z"/>
	<path fill="#E30613" d="M249.668,279.533h2.129v9.945h-2.129V279.533z"/>
	<path fill="#E30613" d="M255.647,285.514h0.028c0.154-0.28,0.322-0.56,0.49-0.826l1.387-2.059h2.563l-2.452,2.773l2.802,4.076
		h-2.62l-1.653-2.815l-0.546,0.672v2.143h-2.129v-9.945h2.129V285.514z"/>
	<path fill="#E30613" d="M263.446,280.724c0,0.588-0.448,1.065-1.149,1.065c-0.672,0-1.12-0.477-1.106-1.065
		c-0.014-0.616,0.435-1.079,1.121-1.079C262.998,279.645,263.432,280.107,263.446,280.724z M261.247,289.479v-6.85h2.129v6.85
		H261.247z"/>
	<path fill="#E30613" d="M267.464,280.668v1.961h1.527v1.569h-1.527v2.479c0,0.826,0.196,1.205,0.84,1.205
		c0.266,0,0.476-0.028,0.63-0.056l0.014,1.611c-0.28,0.112-0.785,0.182-1.387,0.182c-0.687,0-1.261-0.238-1.597-0.588
		c-0.392-0.406-0.588-1.064-0.588-2.031v-2.801h-0.91v-1.569h0.91v-1.485L267.464,280.668z"/>
	<path fill="#E30613" d="M269.954,288.344c0-0.756,0.519-1.303,1.261-1.303c0.743,0,1.247,0.533,1.247,1.303
		c0,0.743-0.504,1.289-1.26,1.289C270.472,289.633,269.954,289.086,269.954,288.344z"/>
	<path fill="#E30613" d="M278.889,289.311c-0.378,0.168-1.093,0.308-1.905,0.308c-2.213,0-3.627-1.345-3.627-3.502
		c0-2.003,1.373-3.642,3.922-3.642c0.56,0,1.176,0.098,1.624,0.266l-0.336,1.583c-0.252-0.112-0.63-0.21-1.19-0.21
		c-1.121,0-1.849,0.798-1.835,1.919c0,1.261,0.841,1.919,1.877,1.919c0.504,0,0.896-0.084,1.219-0.21L278.889,289.311z"/>
	<path fill="#E30613" d="M286.674,285.977c0,2.507-1.779,3.656-3.614,3.656c-2.003,0-3.544-1.317-3.544-3.53
		c0-2.213,1.457-3.628,3.656-3.628C285.273,282.475,286.674,283.917,286.674,285.977z M281.715,286.047
		c0,1.176,0.49,2.059,1.401,2.059c0.826,0,1.358-0.827,1.358-2.059c0-1.023-0.393-2.059-1.358-2.059
		C282.094,283.988,281.715,285.038,281.715,286.047z"/>
	<path fill="#E30613" d="M287.986,284.814c0-0.854-0.028-1.583-0.056-2.185h1.793l0.098,0.924h0.042
		c0.294-0.434,0.896-1.079,2.073-1.079c0.883,0,1.583,0.448,1.877,1.163h0.028c0.252-0.35,0.56-0.63,0.882-0.826
		c0.379-0.224,0.799-0.336,1.303-0.336c1.317,0,2.312,0.925,2.312,2.97v4.034h-2.073v-3.726c0-0.995-0.322-1.569-1.009-1.569
		c-0.49,0-0.84,0.336-0.98,0.743c-0.056,0.154-0.084,0.378-0.084,0.546v4.006h-2.073v-3.838c0-0.869-0.308-1.457-0.98-1.457
		c-0.546,0-0.868,0.42-0.994,0.771c-0.07,0.168-0.084,0.364-0.084,0.532v3.992h-2.073V284.814z"/>
</g>
<g>
	<path fill="#E30613" d="M44.675,330.223h-0.096l-5.953,2.833l-1.2-5.473l8.256-3.84h6.049v31.203h-7.057V330.223z"/>
</g>
</svg>
